<svg height="512pt" viewBox="-9 0 512 512.0003" width="512pt" xmlns="http://www.w3.org/2000/svg"><path d="m486.390625 512c4.710937.027344 8.554687-3.773438 8.578125-8.484375.007812-1.339844-.300781-2.664063-.898438-3.863281l-25.597656-51.199219c-1.453125-2.90625-4.433594-4.734375-7.683594-4.71875h-36.433593l-24.628907-38.714844c-1.566406-2.460937-4.28125-3.953125-7.199218-3.949219h-48.539063c-.285156.042969-.570312.101563-.851562.179688l-10.539063-44.800781c-.910156-3.867188-4.367187-6.59375-8.335937-6.578125h-51.199219v-8.535156c-.046875-10.808594-6.875-20.425782-17.066406-24.027344v-27.171875c-.058594-15.515625-10.574219-29.039063-25.601563-32.917969v-43.878906l60.304688-8.371094c1.703125-.238281 3.292969-.980469 4.566406-2.132812l28.484375-25.875 18.207031 24.671874c2.796875 3.792969 8.140625 4.601563 11.933594 1.804688s4.601563-8.140625 1.804687-11.933594l-19.25-26.070312 1.316407-1.195313c10.484375-9.480469 11.296875-25.671875 1.816406-36.15625-1.265625-1.398437-2.683594-2.65625-4.222656-3.746093-8.785157-6.105469-20.429688-6.136719-29.246094-.082032l-11.203125-15.171875 61.78125-45.613281c3.792969-2.792969 4.605469-8.132812 1.8125-11.929688-.003906-.003906-.007812-.011718-.011719-.015624l-35.507812-48.050782c-2.792969-3.792968-8.136719-4.605468-11.929688-1.808594-.007812.003907-.011719.003907-.015625.011719l-68.652344 50.683594c-3.792968 2.796875-4.605468 8.136719-1.808593 11.933594.003906.003906.007812.007812.011719.015625l35.480468 48.058594 16.621094 22.46875-24.789062 19.949218-45.378907 7.484375c-.222656 0-.417969-.128906-.648437-.128906h-17.074219v-8.535156c0-.066407 0-.117188 0-.1875 10.710937-8 17.035156-20.574219 17.066406-33.945313v-34.132812c0-23.5625-19.101562-42.664063-42.667969-42.664063-23.5625 0-42.664062 19.101563-42.664062 42.664063v34.132812c.03125 13.371094 6.351562 25.945313 17.066406 33.945313v.1875 8.535156h-13.535156l-30.070312-30.0625-12.925782-45.226563c-4.042968-13.546874-18.304687-21.253906-31.851562-17.210937-12.757813 3.804687-20.464844 16.753906-17.734375 29.78125l12.457031 56.046875c.390625 1.773438 1.339844 3.375 2.703125 4.570312l65.355469 57.175782v192.386718h-17.066406c-2.992188 0-5.769532 1.570313-7.3125 4.140626l-51.199219 85.328124c-2.425781 4.042969-1.117188 9.285157 2.921875 11.710938 1.328125.796875 2.84375 1.21875 4.394531 1.21875zm-160.910156-373.753906c3.847656 2.722656 4.761719 8.046875 2.042969 11.894531-.359376.507813-.773438.976563-1.230469 1.394531l-10.011719-13.570312c2.859375-1.707032 6.449219-1.597656 9.199219.28125zm-40.746094-42.929688-25.324219-34.292968 54.902344-40.535157 25.308594 34.3125zm-11.851563 75.945313c1.449219-.234375 2.816407-.84375 3.960938-1.765625l25.980469-20.90625 10.734375 14.507812-27.816406 25.257813-23.671876 3.292969-3.609374-18.039063zm-42.488281 7.007812 11.222657-1.851562 3.523437 17.609375-14.746094 2.050781zm-132.101562-9.730469-22.304688-19.515624-11.84375-53.304688c-1.019531-4.601562 1.886719-9.15625 6.488281-10.175781.601563-.132813 1.214844-.199219 1.832032-.203125 3.804687.003906 7.152344 2.527344 8.199218 6.1875l13.535157 47.351562c.390625 1.398438 1.136719 2.667969 2.164062 3.695313l12.613281 12.613281zm289.546875 249.597657 24.636718 38.714843c1.566407 2.460938 4.285157 3.949219 7.203126 3.949219h35.839843l17.066407 34.132813h-107.433594l-18.066406-76.796875zm-140.378906-85.332031c4.714843 0 8.535156 3.820312 8.535156 8.53125v8.535156h-34.132813v-17.066406zm-68.265626 44.234374v-69.835937h25.601563v51.199219c0 4.714844 3.820313 8.535156 8.53125 8.535156h9.019531l-26.085937 36.511719v-2.378907c-.042969-10.8125-6.875-20.425781-17.066407-24.03125zm0-317.296874c14.140626 0 25.601563 11.460937 25.601563 25.597656v5.222656l-39.96875-13.3125c-.871094-.292969-1.78125-.441406-2.695313-.441406-2.265624 0-4.433593.898437-6.035156 2.5l-2.21875 2.21875c1.886719-12.523438 12.652344-21.789063 25.316406-21.785156zm-25.597656 59.730468v-13.53125l10.835938-10.828125 40.363281 13.4375v10.921875c0 14.140625-11.460937 25.601563-25.601563 25.601563-14.136718 0-25.597656-11.460938-25.597656-25.601563zm34.132813 41.8125v.855469h-17.066407v-.855469c5.628907 1.152344 11.433594 1.152344 17.066407 0zm-42.667969 52.054688v-34.132813h68.265625v76.796875h-68.265625zm0 59.730468h76.800781c9.425781 0 17.066407 7.640626 17.066407 17.066407v25.601562h-17.066407v-17.066406c0-4.714844-3.820312-8.535156-8.535156-8.535156h-42.664063c-4.714843 0-8.535156 3.820312-8.535156 8.535156v76.796875h-17.066406zm0 119.464844h25.601562c4.710938 0 8.53125 3.820313 8.53125 8.535156v8.53125h-34.132812zm-33.910156-212.738281 9.96875-12.46875 6.875 6.878906v20.359375zm-36.351563 315.136719 40.960938-68.265625h80.5c2.757812 0 5.34375-1.332031 6.949219-3.574219l40.113281-56.15625h74.179687l30.113282 127.996094zm0 0"/><path d="m383.992188 366.9375h17.066406v17.066406h-17.066406zm0 0"/><path d="m383.992188 332.804688h17.066406v17.066406h-17.066406zm0 0"/><path d="m34.132812 460.800781h17.066407v17.066407h-17.066407zm0 0"/><path d="m34.132812 426.667969h17.066407v17.066406h-17.066407zm0 0"/><path d="m383.992188 281.605469h17.066406v17.066406h-17.066406zm0 0"/><path d="m358.394531 256.003906h17.066407v17.066406h-17.066407zm0 0"/><path d="m383.992188 230.40625h17.066406v17.066406h-17.066406zm0 0"/><path d="m409.59375 256.003906h17.066406v17.066406h-17.066406zm0 0"/><path d="m34.132812 375.46875h17.066407v17.066406h-17.066407zm0 0"/><path d="m34.132812 341.335938h17.066407v17.066406h-17.066407zm0 0"/><path d="m0 341.335938h17.066406v17.066406h-17.066406zm0 0"/><path d="m34.132812 307.203125h17.066407v17.066406h-17.066407zm0 0"/><path d="m68.265625 341.335938h17.066406v17.066406h-17.066406zm0 0"/><path d="m452.257812 68.273438h17.066407v17.066406h-17.066407zm0 0"/><path d="m426.660156 93.875h17.066406v17.066406h-17.066406zm0 0"/><path d="m477.859375 93.875h17.066406v17.066406h-17.066406zm0 0"/><path d="m452.257812 119.472656h17.066407v17.066406h-17.066407zm0 0"/><path d="m85.332031.0117188h17.066407v17.0664062h-17.066407zm0 0"/><path d="m68.265625 17.078125h17.066406v17.066406h-17.066406zm0 0"/><path d="m102.398438 17.078125h17.066406v17.066406h-17.066406zm0 0"/><path d="m85.332031 34.144531h17.066407v17.066407h-17.066407zm0 0"/></svg>