<?xml version="1.0" standalone="no"?>
<!DOCTYPE svg PUBLIC "-//W3C//DTD SVG 20010904//EN"
 "http://www.w3.org/TR/2001/REC-SVG-20010904/DTD/svg10.dtd">
<svg version="1.0" xmlns="http://www.w3.org/2000/svg"
 width="600.000000pt" height="600.000000pt" viewBox="0 0 600.000000 600.000000"
 preserveAspectRatio="xMidYMid meet">
<metadata>
Created by potrace 1.15, written by Peter Selinger 2001-2017
</metadata>
<g transform="translate(0.000000,600.000000) scale(0.100000,-0.100000)"
fill="#000000" stroke="none">
<path d="M4920 5994 c0 -3 9 -17 20 -31 28 -36 25 -67 -11 -130 -31 -54 -34
-79 -14 -128 l8 -20 -23 20 c-32 28 -70 113 -70 158 0 20 -4 37 -10 37 -15 0
-79 -133 -96 -203 -23 -89 -15 -205 18 -279 29 -62 96 -140 157 -182 37 -26
40 -27 191 -24 l154 3 27 75 c95 261 38 491 -153 621 -78 53 -198 103 -198 83z"/>
<path d="M3619 5160 c-207 -32 -376 -188 -424 -391 -81 -346 190 -670 540
-646 305 22 522 284 484 586 -36 293 -307 496 -600 451z"/>
<path d="M4770 4985 l0 -135 310 0 310 0 0 135 0 135 -310 0 -310 0 0 -135z"/>
<path d="M4965 4594 l0 -185 -52 -18 c-70 -24 -112 -58 -182 -149 -210 -275
-452 -412 -731 -414 -174 -2 -322 39 -527 143 -73 37 -154 74 -181 83 -26 9
-55 25 -65 36 -71 84 -443 248 -667 294 -360 75 -733 19 -1043 -158 -188 -107
-382 -277 -533 -465 -112 -139 -134 -185 -134 -275 0 -87 22 -137 91 -201 72
-68 125 -88 239 -93 92 -3 97 -2 160 30 51 26 78 49 125 108 262 325 492 452
794 438 114 -6 251 -33 251 -50 0 -6 -40 -81 -89 -167 -132 -233 -243 -436
-398 -731 -77 -146 -417 -737 -758 -1315 -341 -577 -625 -1068 -633 -1089 -36
-105 -4 -234 77 -315 66 -66 131 -94 232 -99 103 -5 164 16 227 81 25 26 194
302 452 742 227 385 443 753 481 817 l69 117 33 -19 c17 -10 75 -35 127 -55
128 -49 374 -170 488 -241 50 -32 92 -61 92 -64 0 -3 -148 -94 -328 -202 -185
-111 -345 -214 -366 -235 -60 -62 -81 -115 -81 -208 1 -66 5 -90 28 -140 69
-149 216 -229 358 -195 38 9 198 100 583 332 292 175 543 331 559 346 38 36
117 155 133 201 7 20 13 63 13 96 1 124 -54 190 -334 400 -164 123 -316 223
-467 305 -54 30 -98 57 -98 61 0 22 577 1079 603 1106 1 1 46 -9 100 -22 460
-111 912 -12 1292 283 163 126 394 384 446 497 25 54 25 156 0 211 -25 54 -74
109 -126 140 l-43 25 5 199 6 200 -114 0 -114 0 0 -186z"/>
</g>
</svg>
