<svg height="512pt" viewBox="0 0 512 512" width="512pt" xmlns="http://www.w3.org/2000/svg" xmlns:xlink="http://www.w3.org/1999/xlink"><linearGradient id="a" gradientTransform="matrix(1 0 0 -1 0 -15870)" gradientUnits="userSpaceOnUse" x1="0" x2="512" y1="-16126" y2="-16126"><stop offset="0" stop-color="#00f1ff"/><stop offset=".231" stop-color="#00d8ff"/><stop offset=".5138" stop-color="#00c0ff"/><stop offset=".7773" stop-color="#00b2ff"/><stop offset="1" stop-color="#00adff"/></linearGradient><path d="m512 256c0 141.386719-114.613281 256-256 256s-256-114.613281-256-256 114.613281-256 256-256 256 114.613281 256 256zm0 0" fill="url(#a)"/><g fill="#fff"><path d="m376.8125 102h-241.625c-30.980469 0-56.1875 25.207031-56.1875 56.1875v148.273438c0 30.980468 25.203125 56.183593 56.1875 56.183593h24.710938c8.285156 0 15-6.714843 15-15 0-8.28125-6.714844-15-15-15h-24.710938c-14.441406 0-26.1875-11.746093-26.1875-26.183593v-148.273438c0-14.4375 11.746094-26.1875 26.1875-26.1875h241.625c14.441406 0 26.1875 11.746094 26.1875 26.1875v79.628906c0 8.28125 6.71875 15 15 15 8.285156 0 15-6.71875 15-15v-79.628906c0-30.980469-25.203125-56.1875-56.1875-56.1875zm0 0"/><path d="m418 291.460938c-8.285156 0-15 6.714843-15 15 0 14.4375-11.746094 26.183593-26.1875 26.183593h-23.339844c-8.28125 0-15 6.71875-15 15 0 8.285157 6.71875 15 15 15h23.339844c30.980469 0 56.1875-25.203125 56.1875-56.183593 0-8.285157-6.714844-15-15-15zm0 0"/><path d="m378.871094 231.636719c0 7.582031-6.144532 13.730469-13.726563 13.730469s-13.730469-6.148438-13.730469-13.730469 6.148438-13.730469 13.730469-13.730469 13.726563 6.148438 13.726563 13.730469zm0 0"/><path d="m160.585938 231.636719c0 7.582031-6.148438 13.730469-13.730469 13.730469s-13.726563-6.148438-13.726563-13.730469 6.144532-13.730469 13.726563-13.730469 13.730469 6.148438 13.730469 13.730469zm0 0"/><path d="m286.734375 303.964844c-8.027344-8.066406-18.695313-12.503906-30.046875-12.503906-11.355469 0-22.023438 4.4375-30.050781 12.503906l-28.546875 28.207031c-5.890625 5.820313-5.945313 15.320313-.125 21.214844 5.820312 5.890625 15.320312 5.945312 21.214844.125l21.820312-21.566407v109.054688c0 8.285156 6.714844 15 15 15s15-6.714844 15-15v-110.410156l23.191406 22.921875c2.925782 2.886719 6.734375 4.328125 10.542969 4.328125 3.871094 0 7.738281-1.484375 10.671875-4.453125 5.824219-5.894531 5.765625-15.394531-.125-21.214844zm0 0"/><path d="m256 156.144531c-38.929688 0-70.601562 33.828125-70.601562 75.410157 0 15.972656 4.046874 30.300781 12.035156 42.582031 4.515625 6.945312 13.808594 8.914062 20.75 4.398437 6.945312-4.515625 8.914062-13.808594 4.398437-20.753906-4.765625-7.332031-7.183593-16.15625-7.183593-26.226562 0-25.039063 18.210937-45.410157 40.601562-45.410157 22.386719 0 40.601562 20.371094 40.601562 45.410157 0 9.160156-2.734374 18.25-7.910156 26.28125-4.484375 6.96875-2.472656 16.25 4.492188 20.734374 2.511718 1.617188 5.324218 2.390626 8.105468 2.390626 4.929688 0 9.757813-2.429688 12.625-6.878907 8.300782-12.886719 12.6875-27.59375 12.6875-42.527343 0-41.582032-31.671874-75.410157-70.601562-75.410157zm0 0"/></g></svg>