<svg id="_x33_0" enable-background="new 0 0 64 64" height="512" viewBox="0 0 64 64" width="512" xmlns="http://www.w3.org/2000/svg" xmlns:xlink="http://www.w3.org/1999/xlink"><linearGradient id="SVGID_1_" gradientUnits="userSpaceOnUse" x1="32" x2="32" y1="63" y2="1"><stop offset="0" stop-color="#9f2fff"/><stop offset="1" stop-color="#0bb1d3"/></linearGradient><path d="m54.724 30.885c-1.111-3.362-4.825-8.357-12.86-9.595 3.081-1.951 5.136-5.381 5.136-9.29 0-6.065-4.935-11-11-11s-11 4.935-11 11c0 3.72 1.861 7.008 4.695 9h-3.482c-.528-.591-1.3-1-2.263-1h-4.91c-1.336 0-2.46.86-2.867 2.044-3.852.399-6.862 3.591-8.143 8.713-.132.53-1.049.978-2.02 1.453-1.995.975-5.01 2.449-5.01 6.79v4c0 2.989 2.401 4.536 4.943 6.174 3.541 2.281 7.946 5.121 9.067 12.967l.123.859h7.434l.96-1.601c1.258-2.097 3.558-3.399 6.002-3.399h5.941c2.132 0 3.535.953 5.002 3.399l.962 1.601h7.434l.123-.858c.241-1.687 1.692-3.537 3.096-5.327 1.185-1.511 2.301-2.94 2.815-4.379.448-.136.867-.283 1.266-.436h6.832v-20h-6.621c-.448-.385-1.008-.759-1.655-1.115zm-20.724 19.115h8v-2h-11c-.551 0-1-.449-1-1s.449-1 1-1h9v-2h-12c-.551 0-1-.449-1-1s.449-1 1-1h3 9v-2h-9c-.551 0-1-.449-1-1s.449-1 1-1h11c2.206 0 4-1.794 4-4 0-1.103-.897-2-2-2h-4c-.551 0-1-.449-1-1s.449-1 1-1h3c4.672 0 9.984 1.769 12 3.447v16.843c-3.185 1.108-8.114 1.71-11.385 1.71h-9.615c-.551 0-1-.449-1-1s.449-1 1-1zm-7-38c0-4.962 4.038-9 9-9s9 4.038 9 9-4.038 9-9 9-9-4.038-9-9zm-7.96 10h4.91c.649 0 1.05.519 1.05 1 0 2.344-.413 5.354-.704 7.181-2.947-2.391-6.296-5.684-6.296-7.181 0-.551.467-1 1.04-1zm31.472 33.581c-1.362 1.736-2.765 3.525-3.315 5.419h-4.631l-.378-.63c-1.296-2.161-3.108-4.37-6.717-4.37h-5.941c-3.143 0-6.1 1.674-7.717 4.37l-.379.63h-4.582c-1.447-8.108-6.271-11.216-9.826-13.507-2.571-1.657-4.026-2.683-4.026-4.493v-4c0-3.093 1.889-4.016 3.888-4.993 1.339-.655 2.724-1.332 3.083-2.764.401-1.603 1.996-6.624 6.242-7.186 1.144 3.316 6.924 7.796 8.187 8.743l1.283.962.299-1.576c.042-.218 1.018-5.4 1.018-9.186h11c8.007 0 12.125 3.701 13.926 6.643-2.745-.987-6.061-1.643-8.926-1.643h-3c-1.654 0-3 1.346-3 3s1.346 3 3 3h4c0 1.103-.897 2-2 2h-11c-1.654 0-3 1.346-3 3 0 .352.072.686.184 1h-.184c-1.654 0-3 1.346-3 3s1.346 3 3 3h.184c-.112.314-.184.648-.184 1 0 1.654 1.346 3 3 3h.184c-.112.314-.184.648-.184 1 0 1.654 1.346 3 3 3h9.615c2.504 0 5.806-.321 8.744-.932-.497.791-1.16 1.636-1.847 2.513zm6.488-21.581h4v16h-4zm-20-27h2v2h-4v2h4v6h-2v2h-2v-2h-2v-2h4v-2h-4v-6h2v-2h2zm-21 21c-1.654 0-3 1.346-3 3s1.346 3 3 3 3-1.346 3-3-1.346-3-3-3zm0 4c-.551 0-1-.449-1-1s.449-1 1-1 1 .449 1 1-.449 1-1 1z" fill="url(#SVGID_1_)"/></svg>