<?xml version="1.0" encoding="iso-8859-1"?>
<!-- Generator: Adobe Illustrator 19.0.0, SVG Export Plug-In . SVG Version: 6.00 Build 0)  -->
<svg version="1.1" id="Capa_1" xmlns="http://www.w3.org/2000/svg" xmlns:xlink="http://www.w3.org/1999/xlink" x="0px" y="0px"
	 viewBox="0 0 512 512" style="enable-background:new 0 0 512 512;" xml:space="preserve">
<linearGradient id="SVGID_1_" gradientUnits="userSpaceOnUse" x1="0" y1="258" x2="512" y2="258" gradientTransform="matrix(1 0 0 -1 0 514)">
	<stop  offset="0" style="stop-color:#00F2FE"/>
	<stop  offset="0.021" style="stop-color:#03EFFE"/>
	<stop  offset="0.293" style="stop-color:#24D2FE"/>
	<stop  offset="0.554" style="stop-color:#3CBDFE"/>
	<stop  offset="0.796" style="stop-color:#4AB0FE"/>
	<stop  offset="1" style="stop-color:#4FACFE"/>
</linearGradient>
<path style="fill:url(#SVGID_1_);" d="M512,80v116c0,11.046-8.954,20-20,20s-20-8.954-20-20V80c0-22.056-17.944-40-40-40H80
	c-22.056,0-40,17.944-40,40v216c0,22.056,17.944,40,40,40h36c11.046,0,20,8.954,20,20s-8.954,20-20,20H80c-44.112,0-80-35.888-80-80
	V80C0,35.888,35.888,0,80,0h352C476.112,0,512,35.888,512,80z M492,276c-11.046,0-20,8.954-20,20c0,22.056-17.944,40-40,40h-34
	c-11.046,0-20,8.954-20,20s8.954,20,20,20h34c44.112,0,80-35.888,80-80C512,284.954,503.046,276,492,276z M415,207
	c11.046,0,20-8.954,20-20s-8.954-20-20-20s-20,8.954-20,20S403.954,207,415,207z M77,187c0,11.046,8.954,20,20,20s20-8.954,20-20
	s-8.954-20-20-20S77,175.954,77,187z M299.469,293.676C288.122,282.276,273.045,276,257,276s-31.122,6.276-42.469,17.676
	l-41.589,41.099c-7.857,7.764-7.933,20.427-0.168,28.283c7.764,7.856,20.428,7.933,28.283,0.168L236,328.695V492
	c0,11.046,8.954,20,20,20c11.046,0,20-8.954,20-20V326.719l36.942,36.507c3.897,3.853,8.978,5.774,14.057,5.774
	c5.158,0,10.314-1.983,14.227-5.942c7.765-7.856,7.689-20.52-0.168-28.283L299.469,293.676z M256,78.878
	c-55.691,0-101,48.449-101,108c0,22.907,5.798,43.438,17.233,61.024c6.021,9.26,18.409,11.885,27.669,5.864
	c9.261-6.021,11.886-18.41,5.864-27.67C198.622,215.11,195,201.915,195,186.878c0-37.495,27.364-68,61-68s61,30.505,61,68
	c0,13.703-4.086,27.291-11.815,39.293c-5.98,9.287-3.3,21.663,5.987,27.644c3.35,2.157,7.101,3.188,10.81,3.187
	c6.572,0,13.011-3.237,16.834-9.173c11.896-18.474,18.185-39.55,18.185-60.95C357,127.327,311.691,78.878,256,78.878z"/>
<g>
</g>
<g>
</g>
<g>
</g>
<g>
</g>
<g>
</g>
<g>
</g>
<g>
</g>
<g>
</g>
<g>
</g>
<g>
</g>
<g>
</g>
<g>
</g>
<g>
</g>
<g>
</g>
<g>
</g>
</svg>
