<svg height="512pt" viewBox="0 -38 512 512" width="512pt" xmlns="http://www.w3.org/2000/svg"><path d="m204.789062 285 49.394532-49.394531c5.859375-5.855469 5.859375-15.351563 0-21.210938l-45.789063-45.792969 39.140625-97.851562c1.902344-4.753906 1.25-10.148438-1.734375-14.308594-25.324219-35.339844-66.371093-56.441406-109.800781-56.441406-82.039062 0-136 66.195312-136 150.6875 0 110.65625 95.277344 169.371094 226.011719 282.621094 8.433593 7.308594 21.664062 3.144531 24.371093-7.699219l16.945313-67.769531c1.277344-5.113282-.21875-10.519532-3.945313-14.246094zm22.398438 109.703125c-116.800781-100.019531-197.1875-152.9375-197.1875-244.015625 0-71.058594 43.589844-120.6875 106-120.6875 31.097656 0 60.625 13.914062 80.492188 37.578125l-39.625 99.066406c-2.230469 5.570313-.921876 11.933594 3.320312 16.175781l42.175781 42.179688-49.390625 49.394531c-5.859375 5.855469-5.859375 15.351563 0 21.210938l63.191406 63.195312zm0 0"/><path d="m376 0c-26.257812 0-51.71875 7.546875-73.628906 21.828125-2.585938 1.6875-4.589844 4.128906-5.734375 6.996094l-49.363281 123.382812c-2.226563 5.570313-.921876 11.933594 3.320312 16.179688l56.617188 56.613281-49.394532 49.394531c-5.859375 5.855469-5.859375 15.351563 0 21.210938l44.796875 44.796875-15.1875 60.75c-3.574219 14.296875 13.449219 24.445312 24.378907 14.972656 124.671874-108.078125 200.195312-167.046875 200.195312-265.4375 0-84.328125-53.804688-150.6875-136-150.6875zm-47.949219 362.347656 5.726563-22.90625c1.277344-5.113281-.21875-10.519531-3.945313-14.246094l-40.195312-40.195312 49.394531-49.394531c5.855469-5.855469 5.855469-15.351563 0-21.210938l-60.230469-60.226562 43.859375-109.632813c16.117188-9.523437 34.457032-14.535156 53.339844-14.535156 62.410156 0 106 49.628906 106 120.6875 0 77.570312-58.074219 128.242188-153.949219 211.660156zm0 0"/></svg>