<?xml version="1.0" encoding="UTF-8"?>
<!DOCTYPE svg PUBLIC "-//W3C//DTD SVG 1.1//EN" "http://www.w3.org/Graphics/SVG/1.1/DTD/svg11.dtd">
<svg version="1.2" width="21mm" height="21mm" viewBox="0 0 2100 2100" preserveAspectRatio="xMidYMid" fill-rule="evenodd" stroke-width="28.222" stroke-linejoin="round" xmlns="http://www.w3.org/2000/svg" xmlns:ooo="http://xml.openoffice.org/svg/export" xmlns:xlink="http://www.w3.org/1999/xlink" xmlns:presentation="http://sun.com/xmlns/staroffice/presentation" xmlns:smil="http://www.w3.org/2001/SMIL20/" xmlns:anim="urn:oasis:names:tc:opendocument:xmlns:animation:1.0" xml:space="preserve">
 <defs class="ClipPathGroup">
  <clipPath id="presentation_clip_path" clipPathUnits="userSpaceOnUse">
   <rect x="0" y="0" width="2100" height="2100"/>
  </clipPath>
  <clipPath id="presentation_clip_path_shrink" clipPathUnits="userSpaceOnUse">
   <rect x="2" y="2" width="2096" height="2096"/>
  </clipPath>
 </defs>
 <defs class="TextShapeIndex">
  <g ooo:slide="id1" ooo:id-list="id3"/>
 </defs>
 <defs class="EmbeddedBulletChars">
  <g id="bullet-char-template-57356" transform="scale(0.00048828125,-0.00048828125)">
   <path d="M 580,1141 L 1163,571 580,0 -4,571 580,1141 Z"/>
  </g>
  <g id="bullet-char-template-57354" transform="scale(0.00048828125,-0.00048828125)">
   <path d="M 8,1128 L 1137,1128 1137,0 8,0 8,1128 Z"/>
  </g>
  <g id="bullet-char-template-10146" transform="scale(0.00048828125,-0.00048828125)">
   <path d="M 174,0 L 602,739 174,1481 1456,739 174,0 Z M 1358,739 L 309,1346 659,739 1358,739 Z"/>
  </g>
  <g id="bullet-char-template-10132" transform="scale(0.00048828125,-0.00048828125)">
   <path d="M 2015,739 L 1276,0 717,0 1260,543 174,543 174,936 1260,936 717,1481 1274,1481 2015,739 Z"/>
  </g>
  <g id="bullet-char-template-10007" transform="scale(0.00048828125,-0.00048828125)">
   <path d="M 0,-2 C -7,14 -16,27 -25,37 L 356,567 C 262,823 215,952 215,954 215,979 228,992 255,992 264,992 276,990 289,987 310,991 331,999 354,1012 L 381,999 492,748 772,1049 836,1024 860,1049 C 881,1039 901,1025 922,1006 886,937 835,863 770,784 769,783 710,716 594,584 L 774,223 C 774,196 753,168 711,139 L 727,119 C 717,90 699,76 672,76 641,76 570,178 457,381 L 164,-76 C 142,-110 111,-127 72,-127 30,-127 9,-110 8,-76 1,-67 -2,-52 -2,-32 -2,-23 -1,-13 0,-2 Z"/>
  </g>
  <g id="bullet-char-template-10004" transform="scale(0.00048828125,-0.00048828125)">
   <path d="M 285,-33 C 182,-33 111,30 74,156 52,228 41,333 41,471 41,549 55,616 82,672 116,743 169,778 240,778 293,778 328,747 346,684 L 369,508 C 377,444 397,411 428,410 L 1163,1116 C 1174,1127 1196,1133 1229,1133 1271,1133 1292,1118 1292,1087 L 1292,965 C 1292,929 1282,901 1262,881 L 442,47 C 390,-6 338,-33 285,-33 Z"/>
  </g>
  <g id="bullet-char-template-9679" transform="scale(0.00048828125,-0.00048828125)">
   <path d="M 813,0 C 632,0 489,54 383,161 276,268 223,411 223,592 223,773 276,916 383,1023 489,1130 632,1184 813,1184 992,1184 1136,1130 1245,1023 1353,916 1407,772 1407,592 1407,412 1353,268 1245,161 1136,54 992,0 813,0 Z"/>
  </g>
  <g id="bullet-char-template-8226" transform="scale(0.00048828125,-0.00048828125)">
   <path d="M 346,457 C 273,457 209,483 155,535 101,586 74,649 74,723 74,796 101,859 155,911 209,963 273,989 346,989 419,989 480,963 531,910 582,859 608,796 608,723 608,648 583,586 532,535 482,483 420,457 346,457 Z"/>
  </g>
  <g id="bullet-char-template-8211" transform="scale(0.00048828125,-0.00048828125)">
   <path d="M -4,459 L 1135,459 1135,606 -4,606 -4,459 Z"/>
  </g>
  <g id="bullet-char-template-61548" transform="scale(0.00048828125,-0.00048828125)">
   <path d="M 173,740 C 173,903 231,1043 346,1159 462,1274 601,1332 765,1332 928,1332 1067,1274 1183,1159 1299,1043 1357,903 1357,740 1357,577 1299,437 1183,322 1067,206 928,148 765,148 601,148 462,206 346,322 231,437 173,577 173,740 Z"/>
  </g>
 </defs>
 <g>
  <g id="id2" class="Master_Slide">
   <g id="bg-id2" class="Background"/>
   <g id="bo-id2" class="BackgroundObjects"/>
  </g>
 </g>
 <g class="SlideGroup">
  <g>
   <g id="container-id1">
    <g id="id1" class="Slide" clip-path="url(#presentation_clip_path)">
     <g class="Page">
      <g class="Graphic">
       <g id="id3">
        <rect class="BoundingBox" stroke="none" fill="none" x="0" y="0" width="2301" height="2301"/>
        <path fill="rgb(238,237,237)" stroke="none" d="M 830,746 C 830,746 859,724 939,749 1019,775 1068,768 1068,768 1068,768 1129,741 1172,769 1216,797 1279,772 1279,772 1279,772 1248,838 1049,829 849,820 830,746 830,746 L 830,746 Z"/>
        <path fill="rgb(255,162,0)" stroke="none" d="M 1194,725 C 1194,789 1142,841 1078,841 1013,841 961,789 961,725 961,661 1013,609 1078,609 1142,609 1194,661 1194,725 L 1194,725 Z"/>
        <path fill="rgb(255,162,0)" stroke="none" d="M 1178,725 C 1178,780 1133,825 1078,825 1022,825 977,780 977,725 977,669 1022,624 1078,624 1133,624 1178,669 1178,725 L 1178,725 Z"/>
        <path fill="rgb(255,201,22)" stroke="none" d="M 1078,825 C 1022,825 977,780 977,725 977,669 1022,624 1078,624 1133,624 1178,669 1178,725 1178,780 1133,825 1078,825 L 1078,825 Z M 1078,609 C 1013,609 961,661 961,725 961,789 1013,841 1078,841 1142,841 1194,789 1194,725 1194,661 1142,609 1078,609 L 1078,609 Z"/>
        <path fill="none" stroke="rgb(255,201,22)" stroke-width="6" stroke-linejoin="miter" d="M 1164,725 C 1164,772 1125,811 1078,811 1030,811 991,772 991,725 991,677 1030,639 1078,639 1125,639 1164,677 1164,725 Z"/>
        <path fill="none" stroke="rgb(255,201,22)" stroke-width="2" stroke-linejoin="miter" d="M 1155,725 C 1155,767 1120,802 1078,802 1035,802 1001,767 1001,725 1001,682 1035,648 1078,648 1120,648 1155,682 1155,725 Z"/>
        <path fill="rgb(255,201,22)" stroke="none" d="M 1115,677 L 1046,677 1041,685 1066,685 C 1066,685 1077,687 1078,697 L 1044,697 1039,708 1082,708 C 1082,708 1076,730 1042,726 L 1042,737 1082,782 1100,782 1061,734 C 1061,734 1094,735 1096,708 L 1111,708 1116,698 1097,698 C 1097,698 1095,687 1090,684 L 1110,684 1115,677 1115,677 Z"/>
        <path fill="rgb(255,162,0)" stroke="none" d="M 1183,740 C 1183,740 1183,739 1183,739 1184,743 1190,742 1189,738 1189,737 1188,736 1188,735 1185,732 1181,737 1183,740 L 1183,740 Z"/>
        <path fill="rgb(255,162,0)" stroke="none" d="M 1180,762 C 1184,762 1184,756 1180,756 1176,756 1176,762 1180,762 L 1180,762 Z"/>
        <path fill="rgb(255,162,0)" stroke="none" d="M 1172,783 C 1176,783 1176,777 1172,777 1168,777 1168,783 1172,783 L 1172,783 Z"/>
        <path fill="rgb(255,162,0)" stroke="none" d="M 1161,800 C 1161,800 1161,799 1162,799 1164,796 1160,792 1157,795 1157,795 1157,795 1157,795 1154,798 1158,803 1161,800 L 1161,800 Z"/>
        <path fill="rgb(255,162,0)" stroke="none" d="M 1142,817 C 1146,817 1146,810 1142,810 1138,810 1138,817 1142,817 L 1142,817 Z"/>
        <path fill="rgb(255,162,0)" stroke="none" d="M 1119,829 C 1123,829 1123,823 1119,823 1115,823 1115,829 1119,829 L 1119,829 Z"/>
        <path fill="rgb(255,162,0)" stroke="none" d="M 1094,836 C 1098,836 1098,830 1094,830 1090,830 1090,836 1094,836 L 1094,836 Z"/>
        <path fill="rgb(255,162,0)" stroke="none" d="M 1067,836 C 1067,836 1067,835 1067,835 1070,832 1066,828 1063,831 1063,831 1063,831 1063,831 1060,834 1064,839 1067,836 L 1067,836 Z"/>
        <path fill="rgb(255,162,0)" stroke="none" d="M 1043,830 C 1047,830 1047,823 1043,823 1038,823 1038,830 1043,830 L 1043,830 Z"/>
        <path fill="rgb(255,162,0)" stroke="none" d="M 1023,821 C 1027,821 1027,815 1023,815 1019,815 1019,821 1023,821 L 1023,821 Z"/>
        <path fill="rgb(255,162,0)" stroke="none" d="M 1005,809 C 1009,809 1010,802 1005,802 1001,802 1001,809 1005,809 L 1005,809 Z"/>
        <path fill="rgb(255,162,0)" stroke="none" d="M 989,792 C 993,792 993,786 989,786 985,786 985,792 989,792 L 989,792 Z"/>
        <path fill="rgb(255,162,0)" stroke="none" d="M 980,768 C 980,768 980,768 980,768 977,765 973,769 976,772 976,772 976,772 976,773 979,775 983,771 980,768 L 980,768 Z"/>
        <path fill="rgb(255,162,0)" stroke="none" d="M 972,751 C 976,751 976,745 972,745 968,745 968,751 972,751 L 972,751 Z"/>
        <path fill="rgb(255,162,0)" stroke="none" d="M 969,727 C 973,727 973,721 969,721 965,721 965,727 969,727 L 969,727 Z"/>
        <path fill="rgb(255,162,0)" stroke="none" d="M 971,706 L 972,706 C 976,706 976,699 972,699 L 971,699 C 967,699 967,706 971,706 L 971,706 Z"/>
        <path fill="rgb(255,162,0)" stroke="none" d="M 980,683 C 980,683 980,683 980,682 983,679 979,675 976,678 975,678 975,678 975,678 972,681 977,686 980,683 L 980,683 Z"/>
        <path fill="rgb(255,162,0)" stroke="none" d="M 990,663 C 995,663 995,657 990,657 986,657 986,663 990,663 L 990,663 Z"/>
        <path fill="rgb(255,162,0)" stroke="none" d="M 1006,646 C 1010,646 1010,639 1006,639 1002,639 1002,646 1006,646 L 1006,646 Z"/>
        <path fill="rgb(255,162,0)" stroke="none" d="M 1024,634 C 1028,634 1028,627 1024,627 1020,627 1020,634 1024,634 L 1024,634 Z"/>
        <path fill="rgb(255,162,0)" stroke="none" d="M 1048,624 C 1052,624 1052,618 1048,618 1044,618 1044,624 1048,624 L 1048,624 Z"/>
        <path fill="rgb(255,162,0)" stroke="none" d="M 1070,621 C 1074,621 1074,614 1070,614 1066,614 1066,621 1070,621 L 1070,621 Z"/>
        <path fill="rgb(255,162,0)" stroke="none" d="M 1094,622 C 1098,622 1098,615 1094,615 1090,615 1090,622 1094,622 L 1094,622 Z"/>
        <path fill="rgb(255,162,0)" stroke="none" d="M 1118,629 C 1122,629 1122,622 1118,622 1114,622 1114,629 1118,629 L 1118,629 Z"/>
        <path fill="rgb(255,162,0)" stroke="none" d="M 1142,641 L 1142,641 C 1146,641 1146,635 1142,635 L 1142,635 C 1138,635 1138,641 1142,641 L 1142,641 Z"/>
        <path fill="rgb(255,162,0)" stroke="none" d="M 1158,656 L 1158,657 C 1158,661 1165,661 1165,657 L 1165,656 C 1165,652 1158,652 1158,656 L 1158,656 Z"/>
        <path fill="rgb(255,162,0)" stroke="none" d="M 1175,680 C 1179,680 1179,674 1175,674 1171,674 1171,680 1175,680 L 1175,680 Z"/>
        <path fill="rgb(255,162,0)" stroke="none" d="M 1183,708 C 1187,708 1187,702 1183,702 1179,702 1179,708 1183,708 L 1183,708 Z"/>
        <path fill="rgb(255,162,0)" stroke="none" d="M 1325,575 C 1325,620 1289,656 1245,656 1200,656 1164,620 1164,575 1164,531 1200,495 1245,495 1289,495 1325,531 1325,575 L 1325,575 Z"/>
        <path fill="rgb(255,162,0)" stroke="none" d="M 1314,575 C 1314,614 1283,645 1245,645 1206,645 1175,614 1175,575 1175,537 1206,506 1245,506 1283,506 1314,537 1314,575 L 1314,575 Z"/>
        <path fill="rgb(255,201,22)" stroke="none" d="M 1245,645 C 1206,645 1175,614 1175,575 1175,537 1206,506 1245,506 1283,506 1314,537 1314,575 1314,614 1283,645 1245,645 L 1245,645 Z M 1245,495 C 1200,495 1164,531 1164,575 1164,620 1200,656 1245,656 1289,656 1325,620 1325,575 1325,531 1289,495 1245,495 L 1245,495 Z"/>
        <path fill="none" stroke="rgb(255,201,22)" stroke-width="4" stroke-linejoin="miter" d="M 1304,575 C 1304,608 1278,635 1245,635 1211,635 1185,608 1185,575 1185,542 1211,516 1245,516 1278,516 1304,542 1304,575 Z"/>
        <path fill="none" stroke="rgb(255,201,22)" stroke-width="1" stroke-linejoin="miter" d="M 1298,575 C 1298,605 1274,629 1245,629 1215,629 1191,605 1191,575 1191,546 1215,522 1245,522 1274,522 1298,546 1298,575 Z"/>
        <path fill="rgb(255,201,22)" stroke="none" d="M 1270,542 L 1223,542 1219,548 1236,548 C 1236,548 1244,549 1245,556 L 1221,556 1218,564 1247,564 C 1247,564 1243,579 1220,576 L 1220,583 1247,615 1260,615 1233,582 C 1233,582 1256,583 1258,564 L 1268,564 1271,557 1258,557 C 1258,557 1257,549 1253,547 L 1267,547 1270,542 1270,542 Z"/>
        <path fill="rgb(255,162,0)" stroke="none" d="M 1318,586 C 1318,586 1318,585 1318,585 1318,588 1322,587 1322,584 1322,584 1321,583 1321,582 1319,580 1316,584 1318,586 L 1318,586 Z"/>
        <path fill="rgb(255,162,0)" stroke="none" d="M 1315,601 C 1318,601 1318,597 1315,597 1313,597 1313,601 1315,601 L 1315,601 Z"/>
        <path fill="rgb(255,162,0)" stroke="none" d="M 1310,616 C 1313,616 1313,611 1310,611 1307,611 1307,616 1310,616 L 1310,616 Z"/>
        <path fill="rgb(255,162,0)" stroke="none" d="M 1302,627 C 1302,627 1302,627 1303,627 1305,625 1302,622 1299,624 1299,624 1299,624 1299,624 1297,626 1300,629 1302,627 L 1302,627 Z"/>
        <path fill="rgb(255,162,0)" stroke="none" d="M 1289,639 C 1292,639 1292,635 1289,635 1286,635 1286,639 1289,639 L 1289,639 Z"/>
        <path fill="rgb(255,162,0)" stroke="none" d="M 1273,648 C 1276,648 1276,644 1273,644 1270,644 1270,648 1273,648 L 1273,648 Z"/>
        <path fill="rgb(255,162,0)" stroke="none" d="M 1256,652 C 1259,652 1259,648 1256,648 1253,648 1253,652 1256,652 L 1256,652 Z"/>
        <path fill="rgb(255,162,0)" stroke="none" d="M 1237,652 C 1237,652 1237,652 1237,652 1240,650 1236,647 1234,649 L 1234,649 C 1232,651 1235,654 1237,652 L 1237,652 Z"/>
        <path fill="rgb(255,162,0)" stroke="none" d="M 1220,648 C 1223,648 1223,644 1220,644 1217,644 1217,648 1220,648 L 1220,648 Z"/>
        <path fill="rgb(255,162,0)" stroke="none" d="M 1207,642 C 1209,642 1209,638 1207,638 1204,638 1204,642 1207,642 L 1207,642 Z"/>
        <path fill="rgb(255,162,0)" stroke="none" d="M 1194,634 C 1197,634 1197,629 1194,629 1192,629 1192,634 1194,634 L 1194,634 Z"/>
        <path fill="rgb(255,162,0)" stroke="none" d="M 1183,622 C 1186,622 1186,618 1183,618 1180,618 1180,622 1183,622 L 1183,622 Z"/>
        <path fill="rgb(255,162,0)" stroke="none" d="M 1177,605 C 1177,605 1177,605 1177,605 1175,603 1172,606 1174,608 1174,608 1174,608 1174,608 1176,611 1179,607 1177,605 L 1177,605 Z"/>
        <path fill="rgb(255,162,0)" stroke="none" d="M 1171,594 C 1174,594 1174,589 1171,589 1168,589 1168,594 1171,594 L 1171,594 Z"/>
        <path fill="rgb(255,162,0)" stroke="none" d="M 1169,577 C 1172,577 1172,573 1169,573 1166,573 1166,577 1169,577 L 1169,577 Z"/>
        <path fill="rgb(255,162,0)" stroke="none" d="M 1171,562 L 1171,562 C 1174,562 1174,558 1171,558 L 1171,558 C 1168,558 1168,562 1171,562 L 1171,562 Z"/>
        <path fill="rgb(255,162,0)" stroke="none" d="M 1177,546 C 1177,546 1177,546 1177,546 1179,544 1176,541 1174,543 1174,543 1173,543 1173,543 1171,545 1174,548 1177,546 L 1177,546 Z"/>
        <path fill="rgb(255,162,0)" stroke="none" d="M 1184,533 C 1187,533 1187,528 1184,528 1181,528 1181,533 1184,533 L 1184,533 Z"/>
        <path fill="rgb(255,162,0)" stroke="none" d="M 1195,520 C 1198,520 1198,516 1195,516 1192,516 1192,520 1195,520 L 1195,520 Z"/>
        <path fill="rgb(255,162,0)" stroke="none" d="M 1208,512 C 1210,512 1210,508 1208,508 1205,508 1205,512 1208,512 L 1208,512 Z"/>
        <path fill="rgb(255,162,0)" stroke="none" d="M 1224,505 C 1227,505 1227,501 1224,501 1221,501 1221,505 1224,505 L 1224,505 Z"/>
        <path fill="rgb(255,162,0)" stroke="none" d="M 1239,503 C 1242,503 1242,499 1239,499 1236,499 1236,503 1239,503 L 1239,503 Z"/>
        <path fill="rgb(255,162,0)" stroke="none" d="M 1256,504 C 1259,504 1259,499 1256,499 1253,499 1253,504 1256,504 L 1256,504 Z"/>
        <path fill="rgb(255,162,0)" stroke="none" d="M 1273,509 C 1276,509 1276,504 1273,504 1270,504 1270,509 1273,509 L 1273,509 Z"/>
        <path fill="rgb(255,162,0)" stroke="none" d="M 1289,518 L 1289,518 C 1292,518 1292,513 1289,513 L 1289,513 C 1286,513 1286,518 1289,518 L 1289,518 Z"/>
        <path fill="rgb(255,162,0)" stroke="none" d="M 1301,528 L 1301,528 C 1301,531 1305,531 1305,528 L 1305,528 C 1305,525 1301,525 1301,528 L 1301,528 Z"/>
        <path fill="rgb(255,162,0)" stroke="none" d="M 1312,545 C 1315,545 1315,540 1312,540 1309,540 1309,545 1312,545 L 1312,545 Z"/>
        <path fill="rgb(255,162,0)" stroke="none" d="M 1317,564 C 1320,564 1320,559 1317,559 1314,559 1314,564 1317,564 L 1317,564 Z"/>
        <path fill="rgb(255,162,0)" stroke="none" d="M 1052,510 C 1052,555 1016,591 971,591 927,591 891,555 891,510 891,466 927,429 971,429 1016,429 1052,466 1052,510 L 1052,510 Z"/>
        <path fill="rgb(255,162,0)" stroke="none" d="M 1041,510 C 1041,549 1010,580 971,580 933,580 902,549 902,510 902,472 933,441 971,441 1010,441 1041,472 1041,510 L 1041,510 Z"/>
        <path fill="rgb(255,201,22)" stroke="none" d="M 971,580 C 933,580 902,548 902,510 902,472 933,441 971,441 1010,441 1041,472 1041,510 1041,548 1010,580 971,580 L 971,580 Z M 971,429 C 927,429 891,466 891,510 891,555 927,591 971,591 1016,591 1052,555 1052,510 1052,466 1016,429 971,429 L 971,429 Z"/>
        <path fill="none" stroke="rgb(255,201,22)" stroke-width="4" stroke-linejoin="miter" d="M 1031,510 C 1031,543 1004,570 971,570 938,570 911,543 911,510 911,477 938,450 971,450 1004,450 1031,477 1031,510 Z"/>
        <path fill="none" stroke="rgb(255,201,22)" stroke-width="1" stroke-linejoin="miter" d="M 1025,510 C 1025,540 1001,564 971,564 942,564 918,540 918,510 918,480 942,457 971,457 1001,457 1025,480 1025,510 Z"/>
        <path fill="rgb(255,201,22)" stroke="none" d="M 997,477 L 949,477 946,483 963,483 C 963,483 970,484 971,491 L 948,491 944,498 974,498 C 974,498 970,514 946,511 L 947,518 974,550 987,550 959,516 C 959,516 982,517 984,498 L 994,498 998,491 984,491 C 984,491 983,484 979,482 L 993,482 997,477 997,477 Z"/>
        <path fill="rgb(255,162,0)" stroke="none" d="M 1045,520 C 1044,520 1044,520 1044,520 1045,523 1049,522 1049,519 1048,518 1048,518 1048,517 1046,515 1043,518 1045,520 L 1045,520 Z"/>
        <path fill="rgb(255,162,0)" stroke="none" d="M 1042,536 C 1045,536 1045,532 1042,532 1039,532 1039,536 1042,536 L 1042,536 Z"/>
        <path fill="rgb(255,162,0)" stroke="none" d="M 1036,551 C 1039,551 1039,546 1036,546 1034,546 1034,551 1036,551 L 1036,551 Z"/>
        <path fill="rgb(255,162,0)" stroke="none" d="M 1029,562 C 1029,562 1029,562 1029,562 1031,560 1028,557 1026,559 1026,559 1026,559 1026,559 1024,561 1027,564 1029,562 L 1029,562 Z"/>
        <path fill="rgb(255,162,0)" stroke="none" d="M 1016,574 C 1019,574 1019,569 1016,569 1013,569 1013,574 1016,574 L 1016,574 Z"/>
        <path fill="rgb(255,162,0)" stroke="none" d="M 1000,583 C 1003,583 1003,578 1000,578 997,578 997,583 1000,583 L 1000,583 Z"/>
        <path fill="rgb(255,162,0)" stroke="none" d="M 982,587 C 985,587 985,583 982,583 979,583 979,587 982,587 L 982,587 Z"/>
        <path fill="rgb(255,162,0)" stroke="none" d="M 964,587 C 964,587 964,587 964,586 966,585 963,581 961,583 961,583 961,584 961,584 959,586 962,589 964,587 L 964,587 Z"/>
        <path fill="rgb(255,162,0)" stroke="none" d="M 947,583 C 950,583 950,579 947,579 944,579 944,583 947,583 L 947,583 Z"/>
        <path fill="rgb(255,162,0)" stroke="none" d="M 933,577 C 936,577 936,573 933,573 930,573 930,577 933,577 L 933,577 Z"/>
        <path fill="rgb(255,162,0)" stroke="none" d="M 921,568 C 924,568 924,564 921,564 918,564 918,568 921,568 L 921,568 Z"/>
        <path fill="rgb(255,162,0)" stroke="none" d="M 910,557 C 913,557 913,552 910,552 907,552 907,557 910,557 L 910,557 Z"/>
        <path fill="rgb(255,162,0)" stroke="none" d="M 904,540 C 904,540 904,540 904,540 901,538 898,541 900,543 900,543 901,543 901,543 903,545 906,542 904,540 L 904,540 Z"/>
        <path fill="rgb(255,162,0)" stroke="none" d="M 898,529 C 901,529 901,524 898,524 895,524 895,529 898,529 L 898,529 Z"/>
        <path fill="rgb(255,162,0)" stroke="none" d="M 896,512 C 899,512 899,507 896,507 893,507 893,512 896,512 L 896,512 Z"/>
        <path fill="rgb(255,162,0)" stroke="none" d="M 897,497 L 898,497 C 901,497 901,492 898,492 L 897,492 C 895,492 895,497 897,497 L 897,497 Z"/>
        <path fill="rgb(255,162,0)" stroke="none" d="M 903,481 C 903,481 903,481 904,481 905,479 902,476 900,477 900,478 900,478 900,478 898,480 901,483 903,481 L 903,481 Z"/>
        <path fill="rgb(255,162,0)" stroke="none" d="M 911,467 C 914,467 914,463 911,463 908,463 908,467 911,467 L 911,467 Z"/>
        <path fill="rgb(255,162,0)" stroke="none" d="M 921,455 C 924,455 924,451 921,451 918,451 918,455 921,455 L 921,455 Z"/>
        <path fill="rgb(255,162,0)" stroke="none" d="M 934,447 C 937,447 937,443 934,443 931,443 931,447 934,447 L 934,447 Z"/>
        <path fill="rgb(255,162,0)" stroke="none" d="M 951,440 C 953,440 953,436 951,436 948,436 948,440 951,440 L 951,440 Z"/>
        <path fill="rgb(255,162,0)" stroke="none" d="M 966,438 C 969,438 969,433 966,433 963,433 963,438 966,438 L 966,438 Z"/>
        <path fill="rgb(255,162,0)" stroke="none" d="M 982,439 C 985,439 985,434 982,434 979,434 979,439 982,439 L 982,439 Z"/>
        <path fill="rgb(255,162,0)" stroke="none" d="M 999,443 C 1002,443 1002,439 999,439 996,439 996,443 999,443 L 999,443 Z"/>
        <path fill="rgb(255,162,0)" stroke="none" d="M 1016,452 L 1016,452 C 1019,452 1019,448 1016,448 L 1016,448 C 1013,448 1013,452 1016,452 L 1016,452 Z"/>
        <path fill="rgb(255,162,0)" stroke="none" d="M 1027,462 L 1027,463 C 1027,466 1032,466 1032,463 L 1032,462 C 1032,459 1027,459 1027,462 L 1027,462 Z"/>
        <path fill="rgb(255,162,0)" stroke="none" d="M 1039,479 C 1042,479 1042,475 1039,475 1036,475 1036,479 1039,479 L 1039,479 Z"/>
        <path fill="rgb(255,162,0)" stroke="none" d="M 1044,499 C 1047,499 1047,494 1044,494 1041,494 1041,499 1044,499 L 1044,499 Z"/>
        <path fill="rgb(238,237,237)" stroke="none" d="M 1195,1011 C 1325,1076 1408,1204 1468,1333 1507,1419 1541,1509 1549,1602 1552,1637 1551,1673 1541,1707 1523,1767 1475,1816 1423,1853 1388,1878 1350,1900 1309,1913 1265,1928 1217,1932 1171,1936 768,1967 708,1817 688,1762 668,1707 665,1629 671,1571 685,1432 725,1295 799,1175 836,1114 882,1059 935,1010 935,1010 965,992 953,963 939,927 907,897 884,867 863,840 842,813 827,782 821,770 818,752 830,746 836,742 845,743 852,746 873,754 890,769 911,776 951,791 996,773 1034,753 1054,743 1078,732 1096,745 1103,749 1107,757 1112,764 1132,790 1168,804 1201,800 1235,795 1264,772 1298,768 1314,766 1331,780 1328,795 1325,810 1312,821 1299,831 1253,868 1202,906 1181,961 1178,969 1176,979 1178,988 1178,988 1178,1002 1195,1011 L 1195,1011 Z"/>
        <path fill="rgb(223,223,224)" stroke="none" d="M 1040,1940 C 1079,1941 1123,1940 1171,1936 1218,1932 1265,1928 1309,1913 1350,1900 1388,1878 1423,1854 1475,1816 1523,1768 1541,1707 1551,1673 1552,1637 1549,1602 1540,1509 1507,1419 1468,1333 1408,1204 1325,1076 1195,1011 1178,1002 1178,988 1178,988 1176,979 1178,970 1181,961 1202,906 1253,868 1300,831 1312,821 1325,810 1328,795 1331,780 1314,766 1299,768 1264,772 1235,795 1201,800 1168,805 1132,790 1112,764 1107,757 1103,750 1096,745 1078,732 1054,743 1034,753 996,773 951,791 911,776 890,769 873,754 852,746 845,744 836,742 830,746 818,753 821,770 827,782 842,813 863,840 884,867 907,898 941,926 953,963 961,986 950,995 950,995 944,1003 945,1003 935,1011 935,1011 1051,985 1181,1112 1318,1246 1338,1430 1338,1430 1338,1430 1408,1832 1040,1940 L 1040,1940 Z"/>
        <path fill="rgb(78,87,89)" stroke="none" d="M 989,1004 C 989,1004 987,1006 985,1009 983,1011 982,1013 981,1015 979,1017 977,1020 975,1022 973,1025 971,1028 969,1031 967,1034 965,1037 962,1041 960,1044 958,1048 955,1052 953,1055 951,1059 949,1063 946,1067 944,1070 942,1074 940,1078 938,1082 936,1085 935,1089 933,1093 931,1096 930,1099 928,1103 927,1106 924,1112 922,1117 920,1121 919,1124 918,1126 918,1126 L 918,1127 C 916,1131 911,1132 907,1130 903,1129 902,1126 902,1123 902,1123 902,1120 902,1116 903,1114 903,1111 904,1108 904,1105 905,1102 905,1099 906,1095 907,1091 909,1087 910,1083 911,1079 913,1075 915,1071 917,1066 919,1062 921,1058 923,1054 926,1049 928,1045 931,1041 934,1037 936,1033 940,1030 942,1026 945,1022 948,1019 951,1016 954,1013 957,1010 960,1008 962,1005 965,1003 967,1002 969,1000 971,998 973,997 976,995 979,993 979,993 982,991 987,992 989,996 991,998 990,1002 989,1004 L 989,1004 Z"/>
        <path fill="rgb(78,87,89)" stroke="none" d="M 1007,1001 C 1007,1001 1006,1003 1005,1007 1005,1009 1004,1011 1003,1014 1003,1016 1002,1019 1001,1023 1000,1026 999,1029 998,1033 998,1036 997,1040 996,1044 995,1048 994,1052 994,1056 993,1060 992,1064 992,1069 991,1073 990,1077 990,1081 990,1086 989,1090 989,1094 989,1098 988,1102 988,1105 988,1109 988,1113 988,1116 987,1122 987,1128 987,1132 987,1135 987,1138 987,1138 L 987,1138 C 987,1143 983,1146 978,1146 975,1146 972,1143 971,1140 971,1140 970,1138 969,1134 968,1132 967,1129 967,1127 966,1124 966,1121 965,1117 965,1114 964,1110 964,1106 963,1102 963,1097 963,1093 963,1088 963,1084 964,1079 964,1074 965,1070 965,1065 966,1060 967,1055 968,1051 969,1046 971,1042 972,1038 973,1033 975,1029 976,1026 978,1022 979,1018 981,1015 983,1012 984,1009 986,1006 987,1004 989,1001 990,1000 992,996 993,995 993,995 996,991 1001,990 1004,993 1007,995 1008,998 1007,1001 L 1007,1001 Z"/>
        <path fill="rgb(168,173,173)" stroke="none" d="M 745,1457 C 745,1457 743,1462 740,1471 738,1475 737,1480 735,1486 734,1492 733,1499 731,1506 729,1513 728,1522 727,1530 726,1539 724,1548 724,1557 723,1562 723,1567 723,1572 722,1576 722,1581 722,1586 721,1596 722,1606 722,1617 722,1627 722,1637 723,1647 723,1652 723,1656 724,1661 724,1666 725,1671 725,1676 726,1685 728,1694 729,1703 730,1711 732,1719 734,1727 735,1730 735,1734 736,1737 737,1740 738,1744 739,1746 741,1752 742,1758 744,1761 747,1770 749,1774 749,1774 L 749,1774 C 750,1776 749,1778 748,1779 746,1780 744,1779 743,1778 743,1778 741,1773 736,1765 734,1761 733,1755 730,1749 728,1743 726,1737 724,1729 722,1722 720,1713 718,1705 717,1696 715,1687 714,1677 713,1672 713,1667 712,1662 712,1658 711,1652 711,1647 711,1642 711,1637 710,1632 710,1627 710,1622 710,1617 710,1606 710,1596 711,1586 711,1581 711,1576 711,1571 712,1566 712,1561 713,1556 713,1551 714,1547 715,1542 715,1537 716,1533 717,1529 718,1520 720,1512 722,1504 724,1496 725,1490 727,1484 729,1478 731,1472 733,1468 736,1460 738,1455 738,1455 739,1453 741,1452 743,1453 744,1454 745,1456 745,1457 L 745,1457 Z"/>
        <path fill="rgb(168,173,173)" stroke="none" d="M 763,1525 C 763,1525 762,1528 761,1533 761,1536 760,1539 760,1542 759,1546 759,1550 758,1554 758,1558 757,1563 757,1568 756,1573 756,1579 755,1584 755,1590 755,1595 754,1601 754,1607 754,1613 754,1618 754,1624 754,1630 754,1636 754,1642 754,1647 754,1653 755,1658 755,1664 755,1669 756,1674 757,1678 757,1683 758,1687 759,1691 759,1694 760,1698 761,1701 762,1703 763,1708 764,1710 764,1710 L 764,1711 C 765,1713 763,1715 761,1715 760,1716 758,1715 757,1713 757,1713 756,1711 754,1706 752,1703 752,1700 751,1696 749,1693 748,1689 747,1684 746,1680 746,1675 745,1670 744,1665 743,1659 743,1654 743,1648 742,1642 742,1636 742,1630 742,1624 742,1618 742,1612 742,1606 743,1600 743,1595 744,1589 744,1583 745,1577 746,1572 746,1567 747,1562 748,1557 749,1553 750,1548 750,1544 751,1541 752,1537 753,1534 754,1531 755,1526 756,1524 756,1524 757,1522 758,1521 760,1521 762,1522 763,1524 763,1525 L 763,1525 Z"/>
        <path fill="rgb(168,173,173)" stroke="none" d="M 1428,1687 C 1428,1687 1428,1689 1427,1693 1426,1696 1425,1701 1423,1706 1421,1712 1418,1718 1415,1725 1412,1732 1409,1739 1405,1746 1401,1753 1396,1759 1392,1765 1388,1771 1383,1777 1380,1781 1376,1785 1372,1789 1370,1791 1367,1794 1366,1795 1366,1795 1364,1796 1362,1796 1360,1795 1359,1793 1359,1791 1360,1790 L 1360,1790 C 1360,1790 1361,1788 1363,1786 1365,1783 1368,1779 1372,1775 1378,1765 1387,1753 1395,1740 1398,1733 1402,1727 1405,1720 1407,1717 1409,1714 1410,1711 1412,1708 1413,1705 1414,1703 1416,1698 1418,1693 1420,1690 1421,1687 1422,1685 1422,1685 1423,1684 1424,1683 1426,1684 1428,1684 1429,1686 1428,1687 L 1428,1687 Z"/>
        <path fill="rgb(168,173,173)" stroke="none" d="M 1023,979 C 1023,979 1023,979 1023,979 1023,978 1022,977 1021,976 1020,976 1020,976 1019,976 1019,976 1018,976 1018,977 1018,977 1017,977 1017,977 L 1017,978 1017,978 C 1017,978 1017,978 1017,978 1017,979 1017,980 1017,980 1017,980 1017,980 1017,980 1016,979 1015,978 1014,977 1010,974 1005,970 1001,965 996,961 992,956 989,952 986,948 984,946 984,946 983,944 984,941 986,940 987,940 988,940 989,941 989,941 992,942 996,945 1000,948 1005,953 1009,957 1014,962 1018,967 1021,971 1021,972 1022,973 1023,974 1023,974 1023,974 1024,975 1024,976 1025,977 1025,979 1025,980 1025,979 1025,979 L 1024,980 1024,980 C 1024,981 1024,981 1023,982 1023,982 1022,983 1021,983 1020,983 1019,983 1018,983 1017,982 1016,981 1016,979 1016,979 1016,979 1016,979 1016,977 1017,976 1019,976 1021,976 1023,977 1023,979 L 1023,979 Z"/>
        <path fill="rgb(168,173,173)" stroke="none" d="M 1043,975 C 1043,975 1042,972 1040,967 1040,964 1039,961 1038,958 1037,955 1037,951 1037,948 1036,944 1036,941 1036,937 1036,934 1037,931 1037,928 1038,923 1039,920 1039,920 1040,918 1042,916 1044,917 1045,918 1046,919 1046,920 1046,920 1047,924 1047,929 1048,934 1048,940 1048,947 1049,953 1049,960 1050,965 1050,970 1050,973 1050,973 1050,975 1049,977 1047,977 1045,977 1044,976 1044,975 L 1043,975 1043,975 Z"/>
        <path fill="rgb(168,173,173)" stroke="none" d="M 1073,969 C 1073,969 1072,966 1072,961 1071,957 1071,952 1071,946 1071,941 1072,935 1072,931 1073,927 1074,924 1074,924 1075,922 1077,921 1079,922 1080,922 1081,923 1081,924 1081,924 1082,927 1082,931 1083,936 1083,941 1083,947 1083,952 1082,958 1081,962 1081,966 1080,969 1080,969 1079,971 1077,972 1075,971 1074,971 1073,970 1073,969 L 1073,969 Z"/>
        <path fill="rgb(168,173,173)" stroke="none" d="M 1101,968 C 1101,968 1101,968 1101,967 1101,966 1101,964 1101,962 1100,960 1100,958 1101,955 1101,953 1101,951 1102,948 1103,945 1103,943 1104,941 1105,939 1106,937 1107,935 1109,932 1111,930 1111,930 1112,928 1115,928 1116,929 1117,930 1118,932 1117,933 1117,933 1117,935 1116,939 1116,942 1114,946 1113,951 1112,955 1111,960 1110,963 1109,966 1108,969 1108,969 1108,971 1106,972 1104,971 1103,971 1102,970 1101,969 L 1101,968 1101,968 Z"/>
        <path fill="rgb(168,173,173)" stroke="none" d="M 1113,1077 C 1113,1077 1113,1076 1111,1074 1110,1073 1108,1070 1105,1067 1101,1061 1095,1053 1091,1043 1088,1033 1086,1024 1084,1016 1083,1009 1082,1004 1082,1004 1082,1002 1083,1000 1085,1000 1087,1000 1089,1001 1089,1003 1089,1003 1090,1008 1092,1015 1093,1022 1095,1032 1098,1041 1101,1049 1107,1057 1111,1063 1115,1069 1118,1073 1118,1073 1120,1074 1120,1076 1118,1078 1117,1079 1115,1079 1113,1077 L 1113,1077 Z"/>
        <path fill="rgb(168,173,173)" stroke="none" d="M 1052,1008 C 1052,1008 1051,1014 1049,1024 1047,1034 1044,1047 1042,1060 1040,1073 1039,1086 1038,1096 1037,1101 1037,1105 1036,1108 1036,1111 1036,1112 1036,1112 1036,1114 1034,1116 1032,1115 1030,1115 1029,1114 1029,1112 1029,1112 1028,1111 1028,1108 1028,1105 1028,1100 1028,1095 1028,1090 1028,1084 1028,1078 1029,1071 1030,1065 1031,1058 1032,1051 1033,1045 1035,1038 1036,1032 1038,1027 1040,1022 1041,1017 1043,1013 1044,1010 1045,1008 1046,1006 1046,1006 1046,1004 1049,1004 1050,1004 1052,1005 1052,1007 1052,1008 L 1052,1008 Z"/>
        <path fill="rgb(168,173,173)" stroke="none" d="M 1460,1658 C 1460,1658 1459,1661 1459,1666 1459,1669 1458,1673 1457,1677 1457,1681 1456,1685 1455,1690 1454,1695 1453,1700 1451,1705 1450,1711 1448,1716 1446,1722 1444,1728 1442,1734 1439,1740 1437,1746 1434,1752 1431,1758 1428,1763 1424,1769 1421,1775 1418,1780 1414,1785 1411,1790 1407,1795 1404,1800 1400,1805 1396,1809 1393,1813 1389,1816 1388,1818 1386,1820 1384,1822 1383,1823 1381,1825 1380,1826 1377,1829 1374,1831 1372,1833 1368,1837 1365,1839 1365,1839 1364,1840 1362,1840 1360,1838 1359,1837 1359,1835 1360,1833 L 1361,1833 C 1361,1833 1363,1831 1367,1827 1368,1825 1371,1823 1373,1820 1376,1817 1379,1814 1382,1810 1385,1806 1388,1802 1391,1798 1395,1794 1398,1789 1401,1784 1404,1779 1408,1774 1411,1769 1414,1763 1417,1758 1420,1752 1423,1746 1426,1741 1429,1735 1431,1730 1433,1724 1436,1718 1437,1713 1440,1708 1441,1702 1443,1697 1445,1692 1446,1688 1447,1683 1448,1679 1449,1675 1450,1671 1451,1668 1451,1665 1452,1660 1453,1657 1453,1657 1453,1655 1455,1654 1457,1654 1459,1654 1460,1656 1460,1658 L 1460,1658 Z"/>
        <path fill="rgb(78,87,89)" stroke="none" d="M 956,982 C 956,982 959,982 966,983 972,984 981,985 992,986 997,986 1003,987 1009,987 1015,988 1021,988 1028,989 1035,989 1041,989 1048,990 1055,990 1063,990 1070,990 1077,990 1084,990 1091,990 1098,990 1105,990 1111,990 1118,989 1125,989 1131,989 1137,989 1143,988 1148,988 1169,986 1184,985 1184,985 L 1184,985 C 1188,985 1192,988 1193,993 1193,997 1190,1000 1187,1001 1187,1001 1183,1003 1177,1004 1174,1005 1170,1006 1165,1007 1161,1008 1156,1009 1151,1010 1145,1011 1139,1012 1133,1013 1127,1014 1120,1015 1113,1015 1106,1016 1099,1016 1091,1016 1084,1017 1077,1017 1069,1017 1062,1016 1054,1016 1047,1015 1040,1015 1033,1014 1026,1013 1019,1012 1012,1011 1006,1010 999,1009 993,1008 988,1007 983,1006 978,1004 973,1003 969,1002 965,1001 962,1000 956,998 953,997 953,997 949,995 946,991 948,987 949,984 952,982 956,982 L 956,982 Z"/>
        <path fill="rgb(78,87,89)" stroke="none" d="M 1183,968 C 1183,968 1179,969 1173,971 1167,973 1159,975 1148,978 1143,979 1137,980 1131,981 1125,982 1119,984 1112,985 1105,986 1099,987 1092,988 1085,989 1077,990 1070,991 1063,991 1056,992 1049,992 1042,993 1035,993 1028,993 1021,994 1015,994 1009,994 1002,994 997,994 991,994 986,994 981,993 977,993 972,993 967,992 963,991 960,990 957,989 956,989 954,988 953,987 953,987 949,985 947,980 949,976 951,973 955,971 958,972 L 959,972 C 959,972 959,972 961,972 962,973 965,973 967,973 970,973 972,973 976,973 980,972 985,972 990,971 1001,970 1013,969 1026,968 1040,967 1054,965 1068,964 1075,964 1082,963 1089,962 1095,962 1102,961 1109,960 1122,959 1134,958 1145,957 1155,956 1164,955 1170,954 1176,954 1180,953 1180,953 1184,953 1188,956 1188,960 1188,964 1186,967 1183,968 L 1183,968 Z"/>
        <path fill="rgb(168,173,173)" stroke="none" d="M 860,788 C 860,788 860,788 861,788 861,788 862,788 863,788 865,789 868,789 870,790 873,791 875,791 877,792 879,793 880,793 880,793 L 880,793 C 882,795 883,797 882,799 881,800 881,801 880,801 880,801 879,802 876,802 875,802 873,802 872,802 870,802 869,802 867,801 864,800 861,799 859,797 858,796 857,795 857,795 856,794 856,794 856,794 855,792 856,790 857,789 858,788 859,788 860,788 L 860,788 Z"/>
        <path fill="rgb(168,173,173)" stroke="none" d="M 868,814 C 868,814 870,814 872,814 874,814 877,814 879,815 882,815 884,816 886,817 888,818 889,819 889,819 L 889,819 C 891,820 891,823 890,825 890,825 889,826 888,826 888,826 887,827 885,827 883,827 882,827 881,827 879,827 878,827 876,826 874,826 871,824 869,823 867,822 866,821 866,821 L 866,821 C 865,819 865,816 867,815 867,815 868,814 868,814 L 868,814 Z"/>
        <path fill="rgb(168,173,173)" stroke="none" d="M 885,840 C 885,840 887,840 889,840 891,840 894,840 897,841 899,841 902,842 904,843 906,844 907,845 907,845 L 908,845 C 909,846 910,849 908,851 908,852 907,852 907,852 907,852 905,853 902,853 901,853 900,853 898,853 897,853 896,853 894,852 891,852 888,850 886,849 884,848 883,846 883,846 L 883,846 C 882,844 882,842 883,841 884,840 885,840 885,840 L 885,840 Z"/>
        <path fill="rgb(168,173,173)" stroke="none" d="M 901,863 C 901,863 903,863 905,862 907,862 910,862 912,863 915,863 917,864 919,865 921,866 922,867 922,867 924,868 924,871 922,873 922,873 921,874 921,874 921,874 919,874 917,875 915,875 913,875 910,874 908,874 905,873 903,872 901,871 900,870 900,870 898,868 898,866 900,864 900,864 901,863 901,863 L 901,863 Z"/>
        <path fill="rgb(168,173,173)" stroke="none" d="M 921,886 C 921,886 922,885 924,885 925,884 928,884 930,884 932,884 935,884 937,885 938,886 939,886 939,886 941,888 942,891 941,893 940,893 940,893 939,894 939,894 938,895 936,895 934,896 932,896 930,896 927,896 925,895 923,894 921,894 920,893 920,893 918,892 918,889 919,887 920,887 920,886 921,886 L 921,886 Z"/>
        <path fill="rgb(168,173,173)" stroke="none" d="M 1193,1031 C 1193,1031 1193,1032 1192,1034 1192,1035 1190,1037 1189,1038 1187,1039 1185,1040 1184,1041 1182,1041 1181,1041 1181,1041 1179,1041 1176,1039 1176,1036 1176,1036 1177,1036 1177,1036 1177,1036 1177,1034 1178,1033 1178,1032 1180,1030 1181,1029 1183,1028 1185,1027 1186,1026 1188,1026 1189,1026 1189,1026 1192,1026 1193,1028 1193,1030 1193,1031 1193,1031 1193,1031 L 1193,1031 Z"/>
        <path fill="rgb(168,173,173)" stroke="none" d="M 1213,1041 C 1213,1041 1212,1043 1211,1044 1210,1046 1208,1048 1205,1050 1203,1052 1201,1053 1198,1054 1196,1054 1195,1054 1195,1054 1192,1055 1190,1053 1190,1051 1190,1050 1190,1049 1190,1048 1190,1048 1191,1047 1193,1045 1194,1043 1196,1042 1199,1040 1201,1039 1204,1037 1206,1037 1208,1036 1209,1036 1209,1036 1211,1036 1213,1037 1214,1039 1214,1040 1213,1041 1213,1041 L 1213,1041 Z"/>
        <path fill="rgb(168,173,173)" stroke="none" d="M 1230,1053 C 1230,1053 1230,1054 1229,1055 1227,1057 1226,1059 1224,1060 1222,1062 1221,1063 1219,1064 1217,1065 1216,1065 1216,1065 L 1216,1065 C 1213,1066 1211,1064 1210,1062 1210,1061 1210,1061 1210,1060 1210,1060 1211,1059 1212,1057 1212,1056 1213,1055 1214,1054 1214,1053 1215,1052 1217,1051 1219,1049 1221,1048 1223,1047 1226,1047 1227,1047 1227,1047 L 1227,1047 C 1229,1047 1231,1049 1231,1051 1231,1052 1231,1052 1230,1053 L 1230,1053 Z"/>
        <path fill="rgb(168,173,173)" stroke="none" d="M 1247,1068 C 1247,1068 1246,1070 1246,1071 1245,1073 1243,1075 1242,1076 1240,1078 1238,1079 1236,1079 1235,1080 1233,1080 1233,1080 1231,1080 1229,1079 1228,1076 1228,1076 1228,1075 1228,1074 1228,1074 1229,1073 1230,1072 1231,1070 1232,1068 1234,1067 1236,1066 1238,1064 1239,1064 1241,1063 1242,1063 1242,1063 1245,1063 1247,1065 1247,1067 1247,1067 1247,1068 1247,1068 L 1247,1068 Z"/>
        <path fill="rgb(168,173,173)" stroke="none" d="M 1264,1082 C 1264,1082 1264,1083 1262,1085 1261,1086 1259,1088 1257,1090 1255,1092 1252,1093 1250,1094 1248,1095 1247,1095 1247,1095 1244,1095 1242,1093 1242,1091 1242,1090 1242,1089 1242,1089 1242,1089 1243,1087 1244,1086 1246,1084 1248,1082 1250,1080 1252,1079 1254,1078 1256,1077 1258,1076 1260,1076 1260,1076 1262,1076 1264,1077 1264,1080 1264,1080 1264,1081 1264,1082 L 1264,1082 Z"/>
        <path fill="rgb(168,173,173)" stroke="none" d="M 790,1802 C 790,1802 790,1803 789,1804 787,1806 786,1807 784,1809 782,1810 780,1811 778,1812 776,1812 775,1812 775,1812 L 774,1812 C 772,1812 770,1811 770,1808 770,1808 770,1807 770,1806 770,1806 771,1805 772,1803 773,1802 775,1800 777,1799 779,1797 782,1796 784,1796 786,1796 787,1796 787,1796 L 787,1796 C 789,1796 791,1798 791,1800 791,1801 791,1801 790,1802 L 790,1802 Z"/>
        <path fill="rgb(168,173,173)" stroke="none" d="M 808,1814 C 808,1814 808,1815 808,1815 808,1816 808,1817 808,1818 807,1820 805,1822 804,1824 802,1825 801,1826 800,1826 799,1827 798,1827 797,1828 795,1828 793,1828 793,1828 791,1828 789,1826 790,1823 790,1823 790,1822 790,1822 L 790,1822 C 790,1822 791,1820 792,1819 793,1818 794,1816 796,1815 797,1814 799,1813 800,1812 801,1811 802,1811 802,1811 803,1811 803,1811 803,1811 805,1810 807,1811 808,1813 808,1813 808,1814 808,1814 L 808,1814 Z"/>
        <path fill="rgb(168,173,173)" stroke="none" d="M 830,1828 C 830,1828 830,1830 830,1831 829,1833 828,1835 826,1837 826,1838 825,1839 824,1839 823,1840 822,1840 821,1840 820,1841 818,1841 818,1841 816,1841 814,1839 814,1836 814,1836 814,1836 814,1835 L 814,1835 C 814,1835 814,1834 815,1832 816,1831 817,1830 818,1829 819,1827 821,1826 822,1826 823,1825 824,1825 824,1825 827,1824 829,1825 830,1827 830,1828 830,1828 830,1828 L 830,1828 830,1828 Z"/>
        <path fill="rgb(168,173,173)" stroke="none" d="M 858,1843 C 858,1843 858,1844 858,1844 858,1845 858,1846 857,1847 856,1849 854,1852 851,1854 850,1855 849,1856 847,1856 846,1857 845,1857 843,1857 841,1858 839,1858 839,1858 837,1857 836,1855 836,1853 836,1852 836,1851 837,1851 L 837,1850 C 837,1850 838,1849 839,1848 841,1847 843,1845 845,1844 846,1843 848,1842 850,1841 851,1840 851,1840 852,1840 853,1839 853,1839 853,1839 855,1838 857,1839 858,1841 858,1842 858,1843 858,1843 L 858,1843 Z"/>
        <path fill="rgb(130,136,136)" stroke="none" d="M 1285,1481 C 1285,1589 1198,1677 1089,1677 981,1677 893,1589 893,1481 893,1373 981,1285 1089,1285 1198,1285 1285,1373 1285,1481 L 1285,1481 Z"/>
        <path fill="rgb(238,237,237)" stroke="none" d="M 1190,1368 L 1025,1368 1012,1389 1073,1389 C 1073,1389 1098,1393 1101,1418 L 1020,1418 1007,1443 1110,1444 C 1110,1444 1096,1498 1015,1488 L 1016,1512 1110,1623 1155,1623 1060,1506 C 1060,1506 1139,1509 1146,1444 L 1181,1444 1194,1419 1147,1419 C 1147,1419 1143,1392 1130,1386 L 1178,1386 1190,1368 1190,1368 Z"/>
        <path fill="rgb(255,162,0)" stroke="none" d="M 1645,1791 C 1641,1883 1573,1955 1492,1952 1410,1949 1347,1873 1350,1781 1353,1689 1421,1617 1503,1620 1584,1623 1648,1699 1645,1791 L 1645,1791 Z"/>
        <path fill="rgb(255,162,0)" stroke="none" d="M 1645,1789 C 1641,1881 1582,1953 1511,1951 1440,1949 1385,1873 1388,1781 1391,1689 1451,1617 1522,1619 1593,1621 1648,1698 1645,1789 L 1645,1789 Z"/>
        <path fill="none" stroke="rgb(255,201,22)" stroke-width="8" stroke-linejoin="miter" d="M 1612,1788 C 1610,1857 1565,1911 1512,1909 1459,1907 1418,1850 1421,1782 1423,1713 1468,1659 1521,1661 1573,1663 1614,1720 1612,1788 Z"/>
        <path fill="none" stroke="rgb(255,201,22)" stroke-width="3" stroke-linejoin="miter" d="M 1600,1788 C 1598,1848 1559,1895 1513,1893 1467,1892 1431,1842 1433,1782 1435,1722 1474,1675 1520,1677 1566,1678 1602,1728 1600,1788 Z"/>
        <path fill="rgb(255,201,22)" stroke="none" d="M 1628,1789 C 1625,1869 1573,1932 1512,1930 1450,1928 1402,1861 1405,1781 1408,1701 1460,1638 1521,1640 1583,1643 1631,1709 1628,1789 L 1628,1789 Z M 1522,1619 C 1451,1617 1391,1689 1388,1781 1385,1873 1440,1949 1511,1951 1582,1953 1641,1881 1645,1789 1648,1698 1593,1621 1522,1619 L 1522,1619 Z"/>
        <path fill="rgb(255,201,22)" stroke="none" d="M 1563,1720 L 1486,1720 1480,1731 1508,1731 C 1508,1731 1520,1734 1521,1747 L 1484,1747 1478,1761 1526,1761 C 1526,1761 1519,1790 1481,1785 L 1482,1798 1526,1859 1547,1859 1502,1795 C 1502,1795 1539,1797 1542,1761 L 1559,1761 1565,1748 1543,1748 C 1543,1748 1541,1733 1535,1730 L 1557,1730 1563,1720 1563,1720 Z"/>
        <path fill="rgb(255,162,0)" stroke="none" d="M 1550,1639 C 1554,1639 1554,1633 1550,1633 1546,1633 1546,1639 1550,1639 L 1550,1639 Z"/>
        <path fill="rgb(255,162,0)" stroke="none" d="M 1576,1651 L 1576,1651 C 1580,1651 1580,1645 1576,1645 L 1576,1645 C 1572,1645 1572,1651 1576,1651 L 1576,1651 Z"/>
        <path fill="rgb(255,162,0)" stroke="none" d="M 1593,1667 L 1593,1667 C 1597,1667 1597,1661 1593,1661 L 1593,1661 C 1589,1661 1589,1667 1593,1667 L 1593,1667 Z"/>
        <path fill="rgb(255,162,0)" stroke="none" d="M 1607,1683 L 1607,1684 C 1607,1688 1613,1688 1613,1684 L 1613,1683 C 1613,1680 1607,1680 1607,1683 L 1607,1683 Z"/>
        <path fill="rgb(255,162,0)" stroke="none" d="M 1619,1706 C 1623,1706 1623,1701 1619,1701 1615,1701 1615,1706 1619,1706 L 1619,1706 Z"/>
        <path fill="rgb(255,162,0)" stroke="none" d="M 1626,1729 C 1626,1729 1626,1729 1626,1730 1629,1732 1633,1728 1630,1726 1630,1725 1630,1725 1630,1725 1627,1722 1623,1726 1626,1729 L 1626,1729 Z"/>
        <path fill="rgb(255,162,0)" stroke="none" d="M 1633,1758 C 1637,1758 1637,1752 1633,1752 1630,1752 1630,1758 1633,1758 L 1633,1758 Z"/>
        <path fill="rgb(255,162,0)" stroke="none" d="M 1637,1790 C 1641,1790 1641,1784 1637,1784 1633,1784 1633,1790 1637,1790 L 1637,1790 Z"/>
        <path fill="rgb(255,162,0)" stroke="none" d="M 1632,1824 C 1636,1824 1636,1818 1632,1818 1628,1818 1628,1824 1632,1824 L 1632,1824 Z"/>
        <path fill="rgb(255,162,0)" stroke="none" d="M 1625,1848 C 1623,1847 1621,1848 1621,1850 1620,1852 1621,1853 1623,1854 1624,1854 1626,1853 1626,1852 1626,1852 1626,1851 1626,1851 1626,1852 1626,1852 1625,1853 1625,1853 1625,1853 1626,1853 1625,1853 1624,1853 1623,1853 1623,1853 1623,1853 1624,1853 1625,1853 1627,1853 1627,1851 1628,1850 1627,1848 1625,1848 L 1625,1848 Z"/>
        <path fill="rgb(255,162,0)" stroke="none" d="M 1608,1879 L 1608,1880 C 1608,1883 1613,1883 1613,1880 L 1613,1879 C 1613,1876 1608,1876 1608,1879 L 1608,1879 Z"/>
        <path fill="rgb(255,162,0)" stroke="none" d="M 1589,1911 C 1593,1911 1593,1905 1589,1905 1585,1905 1585,1911 1589,1911 L 1589,1911 Z"/>
        <path fill="rgb(255,162,0)" stroke="none" d="M 1559,1932 C 1563,1932 1563,1926 1559,1926 1556,1926 1556,1932 1559,1932 L 1559,1932 Z"/>
        <path fill="rgb(255,162,0)" stroke="none" d="M 1527,1942 C 1531,1942 1531,1936 1527,1936 1523,1936 1523,1942 1527,1942 L 1527,1942 Z"/>
        <path fill="rgb(255,162,0)" stroke="none" d="M 1492,1940 L 1492,1940 C 1496,1940 1496,1934 1492,1934 L 1492,1934 C 1488,1934 1488,1940 1492,1940 L 1492,1940 Z"/>
        <path fill="rgb(255,162,0)" stroke="none" d="M 1465,1931 C 1469,1931 1469,1925 1465,1925 1461,1925 1461,1931 1465,1931 L 1465,1931 Z"/>
        <path fill="rgb(255,162,0)" stroke="none" d="M 1439,1909 C 1443,1909 1443,1903 1439,1903 1436,1903 1436,1909 1439,1909 L 1439,1909 Z"/>
        <path fill="rgb(255,162,0)" stroke="none" d="M 1419,1882 C 1423,1882 1423,1876 1419,1876 1415,1876 1415,1882 1419,1882 L 1419,1882 Z"/>
        <path fill="rgb(255,162,0)" stroke="none" d="M 1404,1851 C 1408,1851 1408,1846 1404,1846 1401,1846 1401,1851 1404,1851 L 1404,1851 Z"/>
        <path fill="rgb(255,162,0)" stroke="none" d="M 1397,1818 C 1401,1818 1401,1812 1397,1812 1394,1812 1394,1818 1397,1818 L 1397,1818 Z"/>
        <path fill="rgb(255,162,0)" stroke="none" d="M 1396,1781 C 1400,1781 1400,1776 1396,1776 1392,1776 1392,1781 1396,1781 L 1396,1781 Z"/>
        <path fill="rgb(255,162,0)" stroke="none" d="M 1402,1743 C 1406,1743 1406,1737 1402,1737 1398,1737 1398,1743 1402,1743 L 1402,1743 Z"/>
        <path fill="rgb(255,162,0)" stroke="none" d="M 1412,1714 C 1415,1714 1415,1708 1412,1708 1408,1708 1408,1714 1412,1714 L 1412,1714 Z"/>
        <path fill="rgb(255,162,0)" stroke="none" d="M 1426,1686 C 1430,1686 1430,1680 1426,1680 1422,1680 1422,1686 1426,1686 L 1426,1686 Z"/>
        <path fill="rgb(255,162,0)" stroke="none" d="M 1446,1664 C 1450,1664 1450,1658 1446,1658 1443,1658 1443,1664 1446,1664 L 1446,1664 Z"/>
        <path fill="rgb(255,162,0)" stroke="none" d="M 1469,1647 C 1473,1647 1473,1641 1469,1641 1466,1641 1466,1647 1469,1647 L 1469,1647 Z"/>
        <path fill="rgb(255,162,0)" stroke="none" d="M 1495,1637 C 1499,1637 1499,1632 1495,1632 1492,1632 1492,1637 1495,1637 L 1495,1637 Z"/>
        <path fill="rgb(255,162,0)" stroke="none" d="M 1522,1635 C 1526,1635 1526,1629 1522,1629 1518,1629 1518,1635 1522,1635 L 1522,1635 Z"/>
        <path fill="rgb(168,173,173)" stroke="none" d="M 1517,1586 C 1517,1586 1516,1587 1514,1588 1511,1589 1508,1590 1505,1590 1502,1590 1500,1590 1497,1589 1495,1588 1494,1587 1494,1587 1491,1585 1490,1581 1492,1579 1493,1578 1493,1577 1494,1577 1494,1577 1495,1576 1497,1575 1499,1574 1502,1574 1505,1574 1508,1574 1511,1575 1514,1576 1516,1576 1517,1577 1517,1577 1520,1579 1520,1583 1519,1585 1518,1586 1518,1586 1517,1586 L 1517,1586 Z"/>
        <path fill="rgb(168,173,173)" stroke="none" d="M 1516,1561 C 1516,1561 1515,1562 1513,1563 1511,1565 1509,1566 1507,1566 1504,1566 1501,1566 1499,1565 1497,1564 1496,1563 1496,1563 1494,1561 1493,1557 1496,1554 1496,1554 1496,1554 1496,1554 L 1497,1553 C 1497,1553 1498,1552 1499,1552 1501,1551 1503,1550 1505,1550 1507,1550 1509,1550 1511,1551 1512,1551 1514,1552 1514,1552 1517,1554 1518,1557 1516,1560 1516,1560 1516,1561 1516,1561 L 1516,1561 1516,1561 Z"/>
        <path fill="rgb(168,173,173)" stroke="none" d="M 1513,1540 C 1513,1540 1513,1540 1512,1540 1512,1541 1511,1541 1509,1542 1507,1543 1504,1543 1501,1543 1499,1543 1496,1542 1494,1541 1492,1540 1490,1539 1490,1539 1488,1536 1488,1532 1491,1530 1491,1530 1492,1530 1492,1529 L 1492,1529 C 1492,1529 1494,1529 1496,1528 1498,1528 1500,1527 1502,1527 1505,1528 1507,1528 1509,1529 1511,1530 1512,1530 1512,1530 1515,1532 1516,1536 1514,1538 1514,1539 1513,1539 1513,1539 L 1513,1540 1513,1540 Z"/>
        <path fill="rgb(168,173,173)" stroke="none" d="M 1510,1512 C 1510,1512 1509,1512 1509,1512 1508,1513 1508,1514 1507,1514 1504,1515 1501,1516 1498,1517 1495,1517 1492,1516 1490,1515 1487,1514 1486,1513 1486,1513 1484,1511 1484,1507 1486,1504 1486,1504 1487,1504 1487,1503 L 1488,1503 C 1488,1503 1489,1502 1491,1502 1493,1501 1495,1501 1498,1501 1500,1501 1502,1501 1504,1502 1505,1502 1506,1502 1507,1502 1508,1503 1508,1503 1508,1503 1511,1504 1512,1508 1511,1511 1510,1511 1510,1511 1510,1512 L 1510,1512 Z"/>
       </g>
      </g>
     </g>
    </g>
   </g>
  </g>
 </g>
</svg>