<svg height="512" viewBox="0 0 64 64" width="512" xmlns="http://www.w3.org/2000/svg"><g id="Online_Banking" data-name="Online Banking"><path d="m55 43 6 12h-25-8-25l6-12h6 34z" fill="#bddbff"/><circle cx="32" cy="30" fill="#bddbff" r="9"/><path d="m36 55v2a1 1 0 0 1 -1 1h-6a1 1 0 0 1 -1-1v-2h-25v5a1 1 0 0 0 1 1h56a1 1 0 0 0 1-1v-5z" fill="#bddbff"/><circle cx="32" cy="9" fill="#bddbff" r="2"/><g fill="#3d9ae2"><path d="m61.9 54.553-5.9-11.789v-22.764a1 1 0 0 0 1-1v-3h2a1 1 0 0 0 1-1v-6a1 1 0 0 0 -.783-.976l-27-6a.993.993 0 0 0 -.434 0l-27 6a1 1 0 0 0 -.783.976v6a1 1 0 0 0 1 1h2v3a1 1 0 0 0 1 1v22.764l-5.895 11.789a1 1 0 0 0 -.105.447v5a2 2 0 0 0 2 2h56a2 2 0 0 0 2-2v-5a1 1 0 0 0 -.1-.447zm-32.9 1.447h6v1h-6zm-24.382-2 5-10h44.764l5 10zm42.382-38v1h-30v-1zm-30 3h30a1 1 0 0 0 1 1v22h-32v-22a1 1 0 0 0 1-1zm37 23h-4v-22h4zm1-24h-6v-2h6zm-49-8.2 26-5.776 26 5.776v4.2h-52zm9 6.2v2h-6v-2zm-1 4v22h-4v-22zm-10 40v-4h23v1a2 2 0 0 0 2 2h6a2 2 0 0 0 2-2v-1h23v4z"/><path d="m10 50h2v2h-2z"/><path d="m14 50h2v2h-2z"/><path d="m18 50h28v2h-28z"/><path d="m48 50h2v2h-2z"/><path d="m52 50h2v2h-2z"/><path d="m15 46h2v2h-2z"/><path d="m11 46h2v2h-2z"/><path d="m19 46h2v2h-2z"/><path d="m23 46h2v2h-2z"/><path d="m27 46h2v2h-2z"/><path d="m31 46h2v2h-2z"/><path d="m35 46h2v2h-2z"/><path d="m39 46h2v2h-2z"/><path d="m43 46h2v2h-2z"/><path d="m47 46h2v2h-2z"/><path d="m51 46h2v2h-2z"/><path d="m32 6a3 3 0 1 0 3 3 3 3 0 0 0 -3-3zm0 4a1 1 0 1 1 1-1 1 1 0 0 1 -1 1z"/><path d="m33 33h-2a1 1 0 0 1 -1-1h-2a3 3 0 0 0 3 3v1h2v-1a3 3 0 0 0 0-6h-2a1 1 0 0 1 0-2h2a1 1 0 0 1 1 1h2a3 3 0 0 0 -3-3v-1h-2v1a3 3 0 0 0 0 6h2a1 1 0 0 1 0 2z"/><path d="m32 40a10 10 0 1 0 -10-10 10.011 10.011 0 0 0 10 10zm0-18a8 8 0 1 1 -8 8 8.009 8.009 0 0 1 8-8z"/><path d="m18 25h2v12h-2z"/><path d="m44 25h2v12h-2z"/></g></g></svg>