<svg id="Capa_1" enable-background="new 0 0 511.993 511.993" height="512" viewBox="0 0 511.993 511.993" width="512" xmlns="http://www.w3.org/2000/svg"><path d="m331.262 244.765c-4.143 0-7.5 3.358-7.5 7.5v13.076c0 4.143 3.357 7.5 7.5 7.5s7.5-3.357 7.5-7.5v-13.076c0-4.143-3.357-7.5-7.5-7.5zm137.956 14.829c-15.247-26.115-33.874-48.076-59.53-64.083-4.594-25.985-18.657-52.517-36.448-68.413-6.872-6.142-17.065-6.927-24.786-1.906-3.472 2.259-4.457 6.904-2.199 10.377 2.258 3.472 6.904 4.454 10.377 2.199 2.056-1.339 4.775-1.128 6.613.515 12.481 11.151 23.137 29.159 28.76 47.737-17.852-8.148-37.618-13.139-59.14-14.925 1.301-2.845 2.704-5.641 4.215-8.364 2.01-3.622.704-8.188-2.918-10.197-3.623-2.01-8.188-.703-10.197 2.918-2.666 4.804-5.051 9.801-7.121 14.912-9.275-.092-18.2.617-28.609 3.229-20.735-12.776-47.007-20.23-68.679-19.012-10.409.586-18.699 8.877-19.285 19.286-.13 2.318-.159 4.69-.095 7.102h-78.535c-23.056 0-45.029 7.597-62.971 21.579-10.213-21.692 5.603-47.246 30.046-47.246 4.142 0 7.5-3.357 7.5-7.5s-3.358-7.5-7.5-7.5c-37.189 0-60.341 40.564-41.489 72.618-16.714 17.57-26.564 40.186-28.024 64.385-35.066 34.288-19.708 93.055 26.626 106.514 3.978 1.157 8.14-1.132 9.295-5.11 1.156-3.978-1.132-8.139-5.11-9.294-21.448-6.231-35.834-26.211-34.984-48.589.954-25.12 21.419-45.712 46.672-46.672 31.899-1.16 55.595 27.591 49.581 58.056-.915 4.634 2.636 8.953 7.358 8.953h3.67c7.941 0 14.748 5.401 16.554 13.134l2.435 10.425c.79 3.385-1.772 6.616-5.25 6.616h-52.096c-4.142 0-7.5 3.357-7.5 7.5s3.358 7.5 7.5 7.5h329.904c48.111 15.279 98.135-17.979 98.135-64.734 0-27.404-17.533-51.085-42.775-62.01zm-202.646 111.743h-54.9c-10.99 0-19.931-8.94-19.931-19.93v-36.07c0-11.428 9.297-20.725 20.724-20.725s20.724 9.297 20.724 20.725v20.357c0 4.143 3.358 7.5 7.5 7.5h12.762c7.426 0 13.793 5.051 15.481 12.282l2.324 9.956c.706 3.023-1.581 5.905-4.684 5.905zm19.222 0c.754-3.009.799-6.19.07-9.315l-2.324-9.956c-3.282-14.055-15.655-23.871-30.088-23.871h-5.262v-12.857c0-19.698-16.026-35.725-35.724-35.725s-35.724 16.026-35.724 35.725v36.07c0 7.405 2.323 14.273 6.268 19.93h-27.287c.886-3.226.97-6.659.183-10.027l-2.434-10.424c-3.03-12.975-13.539-22.462-26.372-24.371 2.927-48.827-47.969-82.113-91.211-60.99 8.252-39.498 43.277-69.557 85.752-69.557h80.055c3.405 19.909 12.213 40.769 24.421 56.468 2.53 3.254 7.238 3.871 10.524 1.317 3.27-2.543 3.859-7.255 1.316-10.524-15.104-19.424-23.918-47.042-22.71-68.521.156-2.78 2.371-4.995 5.151-5.151 20.96-1.168 48.653 7.26 68.521 22.711 4.947 3.848 12.111.261 12.097-5.932 4.46-.654 8.968-.992 13.493-.992 60.281 0 103.055 23.72 133.362 68.451-45.012-5.628-84.092 26.891-84.092 67.808 0 19.577 8.958 37.247 23.271 49.734h-101.256zm152.092 3.714c-32.592 0-59.107-23.977-59.107-53.448s26.515-53.447 59.107-53.447 59.106 23.977 59.106 53.447c.001 29.472-26.514 53.448-59.106 53.448zm-17.869-67.346c-4.143 0-7.5 3.357-7.5 7.5v12.796c0 4.143 3.357 7.5 7.5 7.5s7.5-3.357 7.5-7.5v-12.796c0-4.142-3.357-7.5-7.5-7.5zm46.319 0c-4.143 0-7.5 3.357-7.5 7.5v12.796c0 4.143 3.357 7.5 7.5 7.5s7.5-3.357 7.5-7.5v-12.796c0-4.142-3.358-7.5-7.5-7.5z"/></svg>