<svg id="Capa_1" enable-background="new 0 0 512 512" height="512" viewBox="0 0 512 512" width="512" xmlns="http://www.w3.org/2000/svg"><g><path d="m83.673 235.855c-27.236 0-49.395-22.158-49.395-49.395 0-27.236 22.159-49.395 49.395-49.395 4.142 0 7.5 3.357 7.5 7.5s-3.358 7.5-7.5 7.5c-18.965 0-34.395 15.43-34.395 34.395s15.43 34.395 34.395 34.395c4.142 0 7.5 3.357 7.5 7.5 0 4.142-3.358 7.5-7.5 7.5z" fill="#e16e7e"/><path d="m407.526 200.257c-3.312-26.476-17.846-55.138-35.889-71.26-5.07-4.53-12.73-4.53-17.801 0-18.043 16.121-32.577 44.783-35.889 71.26-1.407 11.247 7.459 21.153 18.794 21.153h51.991c11.335 0 20.201-9.906 18.794-21.153z" fill="#e16e7e"/><path d="m477.83 279.526c-16.879-30.979-53.941-104.01-161.546-104.01-16.658 0-32.386 3.954-46.327 10.944h-152.364c-54.127 0-98.005 43.878-98.005 98.005v23.255c0 41.341 33.514 74.855 74.855 74.855h330.86c33.037 0 59.819-26.782 59.819-59.818v-14.609c0-10.005-2.506-19.837-7.292-28.622z" fill="#e7889d"/><path d="m117.593 186.46c-54.127 0-98.005 43.878-98.005 98.005v23.255c0 41.341 33.514 74.855 74.855 74.855h95.073c-70.526-36.309-81.705-151.861-50.01-196.115z" fill="#e16e7e"/><path d="m294.664 184.274c-21.064-16.38-51.608-26.37-75.765-25.011-6.788.382-12.205 5.799-12.587 12.587-1.359 24.158 8.631 54.702 25.011 75.765 6.958 8.948 20.232 9.683 28.247 1.668l36.763-36.763c8.014-8.014 7.279-21.287-1.669-28.246z" fill="#e16e7e"/><ellipse cx="443.383" cy="323.613" fill="#fbf1cf" rx="68.617" ry="62.787"/><g fill="#4e5660"><path d="m424.975 337.704c-4.143 0-7.5-3.357-7.5-7.5v-13.183c0-4.143 3.357-7.5 7.5-7.5s7.5 3.357 7.5 7.5v13.183c0 4.143-3.358 7.5-7.5 7.5z"/><path d="m472.69 337.704c-4.142 0-7.5-3.357-7.5-7.5v-13.183c0-4.143 3.358-7.5 7.5-7.5 4.143 0 7.5 3.357 7.5 7.5v13.183c0 4.143-3.357 7.5-7.5 7.5z"/></g><g><g><ellipse cx="314.336" cy="290.915" fill="#fff" rx="32.953" ry="26.242"/></g><path d="m333.541 273.153c-4.143 0-7.5-3.357-7.5-7.5v-13.471c0-4.143 3.357-7.5 7.5-7.5s7.5 3.357 7.5 7.5v13.471c0 4.143-3.357 7.5-7.5 7.5z" fill="#4e5660"/></g><path d="m118.282 336.036h-3.781c.72-3.645 1.106-7.409 1.106-11.265 0-32.672-27.106-59.012-60.056-57.761-29.959 1.138-54.371 25.549-55.509 55.509-1.251 32.95 25.089 60.056 57.761 60.056h74.632c8.555 0 14.878-7.97 12.932-16.3l-2.508-10.739c-2.666-11.421-12.849-19.5-24.577-19.5z" fill="#e7889d"/><path d="m253.382 338.13h-13.147v-20.972c0-16.058-13.018-29.076-29.076-29.076-16.058 0-29.076 13.018-29.076 29.076v37.159c0 15.607 12.652 28.258 28.258 28.258h56.557c8.17 0 14.208-7.611 12.351-15.567l-2.395-10.256c-2.547-10.907-12.272-18.622-23.472-18.622z" fill="#e16e7e"/></g></svg>