<svg height="512pt" viewBox="0 0 512 512" width="512pt" xmlns="http://www.w3.org/2000/svg" xmlns:xlink="http://www.w3.org/1999/xlink"><linearGradient id="a" gradientTransform="matrix(1 0 0 -1 0 -13022)" gradientUnits="userSpaceOnUse" x1="0" x2="512" y1="-13278" y2="-13278"><stop offset="0" stop-color="#00f1ff"/><stop offset=".231" stop-color="#00d8ff"/><stop offset=".5138" stop-color="#00c0ff"/><stop offset=".7773" stop-color="#00b2ff"/><stop offset="1" stop-color="#00adff"/></linearGradient><path d="m512 256c0 141.386719-114.613281 256-256 256s-256-114.613281-256-256 114.613281-256 256-256 256 114.613281 256 256zm0 0" fill="url(#a)"/><g fill="#fff"><path d="m376.8125 104h-241.625c-30.980469 0-56.1875 25.207031-56.1875 56.1875v148.273438c0 30.980468 25.203125 56.183593 56.1875 56.183593h65.898438c8.28125 0 15-6.714843 15-15 0-8.28125-6.71875-15-15-15h-65.898438c-14.441406 0-26.1875-11.746093-26.1875-26.183593v-148.273438c0-14.4375 11.746094-26.1875 26.1875-26.1875h241.625c14.441406 0 26.1875 11.746094 26.1875 26.1875v79.628906c0 8.28125 6.71875 15 15 15 8.285156 0 15-6.71875 15-15v-79.628906c0-30.980469-25.203125-56.1875-56.1875-56.1875zm0 0"/><path d="m418 293.460938c-8.285156 0-15 6.714843-15 15 0 14.4375-11.746094 26.183593-26.1875 26.183593h-65.898438c-8.28125 0-15 6.71875-15 15 0 8.285157 6.71875 15 15 15h65.898438c30.980469 0 56.1875-25.203125 56.1875-56.183593 0-8.285157-6.714844-15-15-15zm0 0"/><path d="m378.871094 233.636719c0 7.582031-6.144532 13.730469-13.726563 13.730469s-13.730469-6.148438-13.730469-13.730469 6.148438-13.730469 13.730469-13.730469 13.726563 6.148438 13.726563 13.730469zm0 0"/><path d="m160.585938 233.636719c0 7.582031-6.148438 13.730469-13.730469 13.730469s-13.726563-6.148438-13.726563-13.730469 6.144532-13.730469 13.726563-13.730469 13.730469 6.148438 13.730469 13.730469zm0 0"/><path d="m294.195312 395.949219-23.195312 22.921875v-124.140625c0-8.285157-6.714844-15-15-15s-15 6.714843-15 15v122.78125l-21.820312-21.5625c-5.894532-5.820313-15.390626-5.765625-21.214844.125-5.820313 5.894531-5.765625 15.390625.128906 21.214843l28.539062 28.203126c8.03125 8.066406 18.699219 12.507812 30.054688 12.507812 11.351562 0 22.023438-4.441406 30.050781-12.507812l28.542969-28.203126c5.890625-5.824218 5.949219-15.320312.125-21.214843-5.820312-5.890625-15.320312-5.945313-21.210938-.125zm0 0"/><path d="m293.183594 280.570312c2.511718 1.617188 5.328125 2.390626 8.105468 2.390626 4.933594 0 9.761719-2.429688 12.625-6.882813 8.300782-12.886719 12.6875-27.589844 12.6875-42.523437 0-41.582032-31.671874-75.40625-70.601562-75.40625s-70.601562 33.824218-70.601562 75.40625c0 15.972656 4.046874 30.300781 12.03125 42.582031 4.515624 6.945312 13.808593 8.914062 20.753906 4.398437 6.945312-4.515625 8.914062-13.808594 4.398437-20.753906-4.769531-7.332031-7.1875-16.15625-7.1875-26.226562 0-25.039063 18.214844-45.40625 40.601563-45.40625 22.390625 0 40.605468 20.367187 40.605468 45.40625 0 9.160156-2.734374 18.25-7.910156 26.285156-4.484375 6.964844-2.472656 16.246094 4.492188 20.730468zm0 0"/></g></svg>