<?xml version="1.0" encoding="iso-8859-1"?>
<!-- Generator: Adobe Illustrator 19.0.0, SVG Export Plug-In . SVG Version: 6.00 Build 0)  -->
<svg version="1.1" id="Capa_1" xmlns="http://www.w3.org/2000/svg" xmlns:xlink="http://www.w3.org/1999/xlink" x="0px" y="0px"
	 viewBox="0 0 512 512" style="enable-background:new 0 0 512 512;" xml:space="preserve">
<linearGradient id="SVGID_1_" gradientUnits="userSpaceOnUse" x1="0" y1="258" x2="512" y2="258" gradientTransform="matrix(1 0 0 -1 0 514)">
	<stop  offset="0" style="stop-color:#00F2FE"/>
	<stop  offset="0.021" style="stop-color:#03EFFE"/>
	<stop  offset="0.293" style="stop-color:#24D2FE"/>
	<stop  offset="0.554" style="stop-color:#3CBDFE"/>
	<stop  offset="0.796" style="stop-color:#4AB0FE"/>
	<stop  offset="1" style="stop-color:#4FACFE"/>
</linearGradient>
<path style="fill:url(#SVGID_1_);" d="M512,80v116c0,11.046-8.954,20-20,20s-20-8.954-20-20V80c0-22.056-17.944-40-40-40H80
	c-22.056,0-40,17.944-40,40v216c0,22.056,17.944,40,40,40h96c11.046,0,20,8.954,20,20s-8.954,20-20,20H80c-44.112,0-80-35.888-80-80
	V80C0,35.888,35.888,0,80,0h352C476.112,0,512,35.888,512,80z M492,276c-11.046,0-20,8.954-20,20c0,22.056-17.944,40-40,40h-96
	c-11.046,0-20,8.954-20,20s8.954,20,20,20h96c44.112,0,80-35.888,80-80C512,284.954,503.046,276,492,276z M435,187
	c0-11.046-8.954-20-20-20s-20,8.954-20,20s8.954,20,20,20S435,198.046,435,187z M77,187c0,11.046,8.954,20,20,20s20-8.954,20-20
	s-8.954-20-20-20S77,175.954,77,187z M312.942,424.774L276,461.28V276c0-11.046-8.954-20-20-20s-20,8.954-20,20v183.303
	l-34.942-34.529c-7.857-7.764-20.52-7.688-28.284,0.168c-7.764,7.857-7.688,20.52,0.168,28.284l41.589,41.098
	C225.878,505.724,240.955,512,257,512s31.122-6.276,42.469-17.676l41.589-41.098c7.856-7.764,7.932-20.427,0.168-28.284
	C333.461,417.085,320.799,417.009,312.942,424.774z M311.172,253.815c3.35,2.157,7.101,3.188,10.809,3.187
	c6.573,0,13.011-3.237,16.834-9.174C350.712,229.354,357,208.277,357,186.878c0-59.551-45.309-108-101-108s-101,48.449-101,108
	c0,22.906,5.798,43.438,17.233,61.024c6.021,9.26,18.41,11.886,27.669,5.865c9.26-6.021,11.886-18.409,5.865-27.669
	C198.623,215.109,195,201.915,195,186.878c0-37.495,27.364-68,61-68s61,30.505,61,68c0,13.702-4.085,27.29-11.815,39.293
	C299.205,235.459,301.885,247.835,311.172,253.815z"/>
<g>
</g>
<g>
</g>
<g>
</g>
<g>
</g>
<g>
</g>
<g>
</g>
<g>
</g>
<g>
</g>
<g>
</g>
<g>
</g>
<g>
</g>
<g>
</g>
<g>
</g>
<g>
</g>
<g>
</g>
</svg>
