<svg height="512" viewBox="0 0 64 64" width="512" xmlns="http://www.w3.org/2000/svg"><path d="m25 28a9 9 0 1 0 -9-9 9.01 9.01 0 0 0 9 9zm0-16a7 7 0 1 1 -7 7 7.008 7.008 0 0 1 7-7z"/><path d="m25 40a9 9 0 1 0 9 9 9.01 9.01 0 0 0 -9-9zm0 16a7 7 0 1 1 7-7 7.008 7.008 0 0 1 -7 7z"/><path d="m46 34a9.01 9.01 0 0 0 -8-8.941v-20.059a3 3 0 0 0 -3-3h-30a3 3 0 0 0 -3 3v54a3 3 0 0 0 3 3h30a3 3 0 0 0 3-3v-16.059a9.01 9.01 0 0 0 8-8.941zm-2 0a7 7 0 1 1 -7-7 7.008 7.008 0 0 1 7 7zm-34-30h20v1a1 1 0 0 1 -1 1h-18a1 1 0 0 1 -1-1zm25 56h-30a1 1 0 0 1 -1-1v-54a1 1 0 0 1 1-1h3v1a3 3 0 0 0 3 3h18a3 3 0 0 0 3-3v-1h3a1 1 0 0 1 1 1v20.059a9 9 0 0 0 0 17.882v16.059a1 1 0 0 1 -1 1z"/><path d="m36 28v1a2 2 0 0 0 -2 2v2a2 2 0 0 0 2 2h2v2h-4v2h2v1h2v-1a2 2 0 0 0 2-2v-2a2 2 0 0 0 -2-2h-2v-2h4v-2h-2v-1z"/><path d="m24 25h2v-1a2 2 0 0 0 2-2v-2a2 2 0 0 0 -2-2h-2v-2h4v-2h-2v-1h-2v1a2 2 0 0 0 -2 2v2a2 2 0 0 0 2 2h2v2h-4v2h2z"/><path d="m26 43h-2v1a2 2 0 0 0 -2 2v2a2 2 0 0 0 2 2h2v2h-4v2h2v1h2v-1a2 2 0 0 0 2-2v-2a2 2 0 0 0 -2-2h-2v-2h4v-2h-2z"/><path d="m6 18h8v2h-8z"/><path d="m8 14h6v2h-6z"/><path d="m9 22h5v2h-5z"/><path d="m6 48h8v2h-8z"/><path d="m8 44h6v2h-6z"/><path d="m9 52h5v2h-5z"/><path d="m18 33h8v2h-8z"/><path d="m20 29h6v2h-6z"/><path d="m21 37h5v2h-5z"/><path d="m41 17h4v1a1 1 0 0 0 1.707.707l5-5a1 1 0 0 0 0-1.414l-5-5a1 1 0 0 0 -1.707.707v1h-4a1 1 0 0 0 -1 1v6a1 1 0 0 0 1 1zm1-6h4a1 1 0 0 0 .937-.649l2.649 2.649-2.649 2.649a1 1 0 0 0 -.937-.649h-4z"/><path d="m61.707 33.293-5-5a1 1 0 0 0 -1.707.707v1h-4a1 1 0 0 0 -1 1v6a1 1 0 0 0 1 1h4v1a1 1 0 0 0 1.707.707l5-5a1 1 0 0 0 0-1.414zm-4.77 3.356a1 1 0 0 0 -.937-.649h-4v-4h4a1 1 0 0 0 .937-.649l2.649 2.649z"/><path d="m46.707 49.293a1 1 0 0 0 -1.707.707v1h-4a1 1 0 0 0 -1 1v6a1 1 0 0 0 1 1h4v1a1 1 0 0 0 1.707.707l5-5a1 1 0 0 0 0-1.414zm.23 8.356a1 1 0 0 0 -.937-.649h-4v-4h4a1 1 0 0 0 .937-.649l2.649 2.649z"/></svg>